<?xml version="1.0" encoding="UTF-8"?>
<svg xmlns="http://www.w3.org/2000/svg" xmlns:xlink="http://www.w3.org/1999/xlink" width="864pt" height="864pt" viewBox="0 0 864 864" version="1.1">
<defs>
<g>
<symbol overflow="visible" id="glyph0-0">
<path style="stroke:none;" d=""/>
</symbol>
<symbol overflow="visible" id="glyph0-1">
<path style="stroke:none;" d="M 3.03125 -7.984375 C 2.3125 -7.984375 1.640625 -7.65625 1.234375 -7.109375 C 0.734375 -6.40625 0.46875 -5.34375 0.46875 -3.859375 C 0.46875 -1.171875 1.359375 0.25 3.03125 0.25 C 4.6875 0.25 5.59375 -1.171875 5.59375 -3.796875 C 5.59375 -5.34375 5.359375 -6.390625 4.84375 -7.109375 C 4.4375 -7.671875 3.78125 -7.984375 3.03125 -7.984375 Z M 3.03125 -7.125 C 4.09375 -7.125 4.609375 -6.046875 4.609375 -3.890625 C 4.609375 -1.609375 4.09375 -0.546875 3.015625 -0.546875 C 1.984375 -0.546875 1.46875 -1.65625 1.46875 -3.859375 C 1.46875 -6.046875 1.984375 -7.125 3.03125 -7.125 Z M 3.03125 -7.125 "/>
</symbol>
<symbol overflow="visible" id="glyph0-2">
<path style="stroke:none;" d="M 2.109375 -1.15625 L 0.96875 -1.15625 L 0.96875 0 L 2.109375 0 Z M 2.109375 -1.15625 "/>
</symbol>
<symbol overflow="visible" id="glyph0-3">
<path style="stroke:none;" d="M 3.609375 -1.9375 L 3.609375 0 L 4.578125 0 L 4.578125 -1.9375 L 5.75 -1.9375 L 5.75 -2.8125 L 4.578125 -2.8125 L 4.578125 -7.984375 L 3.859375 -7.984375 L 0.3125 -2.953125 L 0.3125 -1.9375 Z M 3.609375 -2.8125 L 1.15625 -2.8125 L 3.609375 -6.328125 Z M 3.609375 -2.8125 "/>
</symbol>
<symbol overflow="visible" id="glyph0-4">
<path style="stroke:none;" d="M 5.5 -5.90625 C 5.3125 -7.21875 4.46875 -7.984375 3.28125 -7.984375 C 2.421875 -7.984375 1.640625 -7.5625 1.1875 -6.84375 C 0.6875 -6.0625 0.46875 -5.09375 0.46875 -3.640625 C 0.46875 -2.296875 0.65625 -1.453125 1.140625 -0.734375 C 1.5625 -0.09375 2.25 0.25 3.109375 0.25 C 4.59375 0.25 5.671875 -0.859375 5.671875 -2.421875 C 5.671875 -3.890625 4.671875 -4.921875 3.265625 -4.921875 C 2.5 -4.921875 1.890625 -4.640625 1.46875 -4.046875 C 1.484375 -6.03125 2.09375 -7.125 3.21875 -7.125 C 3.90625 -7.125 4.375 -6.6875 4.53125 -5.90625 Z M 3.140625 -4.0625 C 4.09375 -4.0625 4.671875 -3.40625 4.671875 -2.34375 C 4.671875 -1.34375 4.015625 -0.609375 3.109375 -0.609375 C 2.203125 -0.609375 1.53125 -1.375 1.53125 -2.390625 C 1.53125 -3.375 2.1875 -4.0625 3.140625 -4.0625 Z M 3.140625 -4.0625 "/>
</symbol>
<symbol overflow="visible" id="glyph0-5">
<path style="stroke:none;" d="M 4.3125 -4.203125 C 5.140625 -4.703125 5.390625 -5.109375 5.390625 -5.859375 C 5.390625 -7.109375 4.4375 -7.984375 3.03125 -7.984375 C 1.65625 -7.984375 0.6875 -7.109375 0.6875 -5.859375 C 0.6875 -5.109375 0.9375 -4.71875 1.75 -4.203125 C 0.84375 -3.75 0.40625 -3.109375 0.40625 -2.21875 C 0.40625 -0.765625 1.484375 0.25 3.03125 0.25 C 4.578125 0.25 5.671875 -0.765625 5.671875 -2.21875 C 5.671875 -3.109375 5.21875 -3.75 4.3125 -4.203125 Z M 3.03125 -7.125 C 3.859375 -7.125 4.390625 -6.625 4.390625 -5.828125 C 4.390625 -5.078125 3.859375 -4.578125 3.03125 -4.578125 C 2.203125 -4.578125 1.671875 -5.078125 1.671875 -5.859375 C 1.671875 -6.625 2.203125 -7.125 3.03125 -7.125 Z M 3.03125 -3.765625 C 4.015625 -3.765625 4.671875 -3.125 4.671875 -2.203125 C 4.671875 -1.234375 4.015625 -0.609375 3.015625 -0.609375 C 2.0625 -0.609375 1.40625 -1.265625 1.40625 -2.1875 C 1.40625 -3.140625 2.0625 -3.765625 3.03125 -3.765625 Z M 3.03125 -3.765625 "/>
</symbol>
<symbol overflow="visible" id="glyph0-6">
<path style="stroke:none;" d="M 5.265625 -7.828125 L 1.21875 -7.828125 L 0.625 -3.5625 L 1.53125 -3.5625 C 1.984375 -4.109375 2.359375 -4.296875 2.96875 -4.296875 C 4.015625 -4.296875 4.671875 -3.578125 4.671875 -2.421875 C 4.671875 -1.296875 4.015625 -0.609375 2.953125 -0.609375 C 2.109375 -0.609375 1.59375 -1.03125 1.359375 -1.921875 L 0.390625 -1.921875 C 0.515625 -1.28125 0.625 -0.96875 0.859375 -0.6875 C 1.296875 -0.09375 2.09375 0.25 2.984375 0.25 C 4.5625 0.25 5.671875 -0.890625 5.671875 -2.546875 C 5.671875 -4.09375 4.640625 -5.15625 3.140625 -5.15625 C 2.578125 -5.15625 2.140625 -5.015625 1.6875 -4.6875 L 2 -6.875 L 5.265625 -6.875 Z M 5.265625 -7.828125 "/>
</symbol>
<symbol overflow="visible" id="glyph0-7">
<path style="stroke:none;" d="M 2.4375 -3.671875 L 2.96875 -3.671875 C 4.03125 -3.671875 4.59375 -3.1875 4.59375 -2.21875 C 4.59375 -1.21875 3.984375 -0.609375 2.984375 -0.609375 C 1.90625 -0.609375 1.390625 -1.15625 1.328125 -2.3125 L 0.359375 -2.3125 C 0.390625 -1.671875 0.515625 -1.265625 0.703125 -0.90625 C 1.109375 -0.125 1.859375 0.25 2.9375 0.25 C 4.546875 0.25 5.59375 -0.71875 5.59375 -2.234375 C 5.59375 -3.25 5.203125 -3.796875 4.265625 -4.125 C 5 -4.4375 5.359375 -4.984375 5.359375 -5.78125 C 5.359375 -7.15625 4.46875 -7.984375 2.96875 -7.984375 C 1.390625 -7.984375 0.546875 -7.109375 0.515625 -5.40625 L 1.484375 -5.40625 C 1.5 -5.90625 1.546875 -6.171875 1.671875 -6.421875 C 1.890625 -6.875 2.375 -7.140625 2.984375 -7.140625 C 3.84375 -7.140625 4.359375 -6.609375 4.359375 -5.75 C 4.359375 -5.1875 4.171875 -4.84375 3.734375 -4.65625 C 3.46875 -4.546875 3.109375 -4.5 2.4375 -4.5 Z M 2.4375 -3.671875 "/>
</symbol>
<symbol overflow="visible" id="glyph0-8">
<path style="stroke:none;" d="M 5.59375 -0.96875 L 1.46875 -0.96875 C 1.5625 -1.625 1.921875 -2.046875 2.890625 -2.625 L 3.984375 -3.25 C 5.078125 -3.859375 5.640625 -4.671875 5.640625 -5.65625 C 5.640625 -6.3125 5.375 -6.9375 4.921875 -7.375 C 4.453125 -7.78125 3.875 -7.984375 3.140625 -7.984375 C 2.140625 -7.984375 1.40625 -7.640625 0.96875 -6.953125 C 0.703125 -6.53125 0.578125 -6.03125 0.546875 -5.21875 L 1.53125 -5.21875 C 1.5625 -5.765625 1.625 -6.09375 1.75 -6.359375 C 2.015625 -6.84375 2.515625 -7.140625 3.109375 -7.140625 C 3.984375 -7.140625 4.65625 -6.5 4.65625 -5.640625 C 4.65625 -5 4.28125 -4.4375 3.59375 -4.046875 L 2.578125 -3.453125 C 0.9375 -2.5 0.46875 -1.75 0.375 -0.015625 L 5.59375 -0.015625 Z M 5.59375 -0.96875 "/>
</symbol>
<symbol overflow="visible" id="glyph0-9">
<path style="stroke:none;" d="M 2.859375 -5.6875 L 2.859375 0 L 3.828125 0 L 3.828125 -7.984375 L 3.1875 -7.984375 C 2.84375 -6.765625 2.625 -6.59375 1.125 -6.390625 L 1.125 -5.6875 Z M 2.859375 -5.6875 "/>
</symbol>
<symbol overflow="visible" id="glyph0-10">
<path style="stroke:none;" d="M 5.75 -7.828125 L 0.515625 -7.828125 L 0.515625 -6.875 L 4.734375 -6.875 C 2.875 -4.203125 2.109375 -2.578125 1.53125 0 L 2.5625 0 C 3 -2.5 3.984375 -4.65625 5.75 -7.015625 Z M 5.75 -7.828125 "/>
</symbol>
<symbol overflow="visible" id="glyph1-0">
<path style="stroke:none;" d=""/>
</symbol>
<symbol overflow="visible" id="glyph1-1">
<path style="stroke:none;" d="M 10.59375 -7.703125 L 10.4375 -11.546875 L 10.078125 -11.546875 C 9.96875 -11.1875 9.703125 -10.984375 9.359375 -10.984375 C 9.203125 -10.984375 8.953125 -11.03125 8.6875 -11.125 C 7.859375 -11.40625 7 -11.546875 6.203125 -11.546875 C 4.796875 -11.546875 3.375 -11.015625 2.328125 -10.078125 C 1.125 -9.015625 0.484375 -7.453125 0.484375 -5.5625 C 0.484375 -2.078125 2.75 0.234375 6.140625 0.234375 C 8.078125 0.234375 9.78125 -0.546875 10.8125 -1.9375 L 10.5 -2.234375 C 9.25 -1.03125 8.109375 -0.515625 6.6875 -0.515625 C 5.625 -0.515625 4.65625 -0.859375 3.921875 -1.5 C 2.984375 -2.34375 2.453125 -3.875 2.453125 -5.796875 C 2.453125 -8.875 4.046875 -10.859375 6.53125 -10.859375 C 7.5 -10.859375 8.390625 -10.5 9.0625 -9.84375 C 9.609375 -9.296875 9.875 -8.8125 10.203125 -7.703125 Z M 10.59375 -7.703125 "/>
</symbol>
<symbol overflow="visible" id="glyph1-2">
<path style="stroke:none;" d="M 7.71875 -0.328125 C 6.3125 -0.390625 6.09375 -0.59375 6.078125 -1.859375 L 6.078125 -10.59375 L 7 -10.59375 C 8.984375 -10.546875 9.34375 -10.265625 9.71875 -8.40625 L 10.125 -8.40625 L 10.03125 -11.3125 L 0.390625 -11.3125 L 0.296875 -8.40625 L 0.703125 -8.40625 C 1.09375 -10.265625 1.453125 -10.546875 3.421875 -10.59375 L 4.34375 -10.59375 L 4.34375 -2.046875 C 4.328125 -0.578125 4.171875 -0.40625 2.734375 -0.328125 L 2.734375 0 L 7.71875 0 Z M 7.71875 -0.328125 "/>
</symbol>
<symbol overflow="visible" id="glyph1-3">
<path style="stroke:none;" d="M 12.078125 -11.3125 L 8.0625 -11.3125 L 8.0625 -10.984375 C 9.421875 -10.890625 9.65625 -10.609375 9.703125 -8.796875 L 9.703125 -3.046875 L 3.125 -11.3125 L 0.203125 -11.3125 L 0.203125 -10.984375 C 0.9375 -10.984375 1.171875 -10.84375 1.859375 -10.046875 L 1.859375 -2.515625 C 1.828125 -0.703125 1.609375 -0.40625 0.203125 -0.328125 L 0.203125 0 L 4.21875 0 L 4.21875 -0.328125 C 2.90625 -0.390625 2.640625 -0.75 2.609375 -2.515625 L 2.609375 -9.203125 L 10.15625 0.1875 L 10.453125 0.1875 L 10.453125 -8.796875 C 10.5 -10.578125 10.71875 -10.859375 12.078125 -10.984375 Z M 12.078125 -11.3125 "/>
</symbol>
<symbol overflow="visible" id="glyph1-4">
<path style="stroke:none;" d="M 0.296875 -10.984375 C 1.71875 -10.890625 1.90625 -10.71875 1.9375 -9.4375 L 1.9375 -1.859375 C 1.90625 -0.578125 1.6875 -0.375 0.296875 -0.328125 L 0.296875 0 L 6 0 C 7.3125 0 8.546875 -0.359375 9.171875 -0.9375 C 9.78125 -1.484375 10.125 -2.25 10.125 -3.078125 C 10.125 -3.828125 9.84375 -4.515625 9.296875 -5 C 8.78125 -5.46875 8.3125 -5.671875 7.203125 -5.9375 C 8.09375 -6.171875 8.453125 -6.34375 8.859375 -6.6875 C 9.296875 -7.078125 9.546875 -7.6875 9.546875 -8.40625 C 9.546875 -10.3125 8.015625 -11.3125 5.078125 -11.3125 L 0.296875 -11.3125 Z M 3.671875 -5.5625 C 5.328125 -5.5625 6.109375 -5.46875 6.734375 -5.203125 C 7.703125 -4.8125 8.15625 -4.109375 8.15625 -3.0625 C 8.15625 -2.140625 7.8125 -1.46875 7.125 -1.078125 C 6.578125 -0.765625 5.875 -0.625 4.75 -0.625 C 3.90625 -0.625 3.671875 -0.78125 3.671875 -1.328125 Z M 3.671875 -6.234375 L 3.671875 -10.15625 C 3.6875 -10.53125 3.75 -10.640625 4.046875 -10.65625 L 4.796875 -10.671875 C 6.6875 -10.71875 7.8125 -9.859375 7.8125 -8.328125 C 7.8125 -6.984375 6.9375 -6.265625 5.296875 -6.25 Z M 3.671875 -6.234375 "/>
</symbol>
<symbol overflow="visible" id="glyph1-5">
<path style="stroke:none;" d="M 2.015625 0 L 6.734375 0 L 6.734375 -0.25 C 5.40625 -0.25 5.125 -0.4375 5.109375 -1.265625 L 5.109375 -11.515625 L 4.96875 -11.546875 L 1.890625 -9.984375 L 1.890625 -9.75 C 2.5625 -10 2.96875 -10.125 3.125 -10.125 C 3.484375 -10.125 3.640625 -9.875 3.640625 -9.328125 L 3.640625 -1.59375 C 3.609375 -0.515625 3.3125 -0.265625 2.015625 -0.25 Z M 2.015625 0 "/>
</symbol>
<symbol overflow="visible" id="glyph1-6">
<path style="stroke:none;" d="M 15.921875 -11.3125 L 12.53125 -11.3125 L 12.53125 -10.984375 C 13.40625 -10.890625 13.71875 -10.703125 13.71875 -10.25 C 13.71875 -9.90625 13.609375 -9.4375 13.4375 -8.96875 L 11.3125 -3.171875 L 9.046875 -9 C 8.9375 -9.3125 8.875 -9.4375 8.84375 -9.515625 C 8.6875 -9.875 8.59375 -10.203125 8.59375 -10.390625 C 8.59375 -10.796875 8.984375 -10.96875 9.90625 -10.984375 L 9.90625 -11.3125 L 5.34375 -11.3125 L 5.34375 -10.984375 C 6.3125 -10.96875 6.484375 -10.8125 7.078125 -9.4375 L 7.640625 -8.046875 L 5.8125 -3.234375 L 3.34375 -9.65625 C 3.234375 -9.953125 3.15625 -10.25 3.15625 -10.4375 C 3.15625 -10.8125 3.40625 -10.90625 4.265625 -10.984375 L 4.265625 -11.3125 L 0.078125 -11.3125 L 0.078125 -10.984375 C 0.953125 -10.890625 1.21875 -10.59375 1.84375 -8.984375 L 5.140625 0.1875 L 5.390625 0.1875 L 8.03125 -7.03125 L 10.765625 0.1875 L 11.015625 0.1875 C 12.484375 -4.28125 12.609375 -4.640625 14.5 -9.765625 C 14.828125 -10.65625 15.015625 -10.8125 15.921875 -10.984375 Z M 15.921875 -11.3125 "/>
</symbol>
<symbol overflow="visible" id="glyph1-7">
<path style="stroke:none;" d="M 8.109375 -2.34375 L 7.890625 -2.421875 C 7.265625 -1.4375 7.078125 -1.3125 6.265625 -1.296875 L 2.1875 -1.296875 L 5.0625 -4.296875 C 6.578125 -5.890625 7.234375 -7.1875 7.234375 -8.515625 C 7.234375 -10.234375 5.859375 -11.546875 4.078125 -11.546875 C 3.140625 -11.546875 2.25 -11.171875 1.625 -10.484375 C 1.078125 -9.90625 0.8125 -9.359375 0.53125 -8.140625 L 0.890625 -8.0625 C 1.578125 -9.734375 2.171875 -10.28125 3.359375 -10.28125 C 4.8125 -10.28125 5.765625 -9.3125 5.765625 -7.875 C 5.765625 -6.53125 4.984375 -4.953125 3.546875 -3.4375 L 0.515625 -0.203125 L 0.515625 0 L 7.171875 0 Z M 8.109375 -2.34375 "/>
</symbol>
<symbol overflow="visible" id="glyph1-8">
<path style="stroke:none;" d="M 8.390625 -0.984375 C 8.15625 -0.96875 8.0625 -0.96875 8 -0.96875 C 7.390625 -0.96875 7.234375 -1.15625 7.234375 -1.953125 L 7.234375 -11.625 L 7.15625 -11.671875 C 6.359375 -11.390625 5.765625 -11.203125 4.640625 -10.90625 L 4.640625 -10.640625 C 4.78125 -10.65625 4.875 -10.65625 5.015625 -10.65625 C 5.65625 -10.65625 5.8125 -10.484375 5.8125 -9.78125 L 5.8125 -7.125 C 5.15625 -7.671875 4.703125 -7.859375 4.015625 -7.859375 C 2.046875 -7.859375 0.46875 -5.921875 0.46875 -3.5 C 0.46875 -1.3125 1.71875 0.171875 3.625 0.171875 C 4.578125 0.171875 5.21875 -0.171875 5.8125 -0.96875 L 5.8125 0.125 L 5.875 0.171875 L 8.390625 -0.71875 Z M 5.8125 -1.734375 C 5.8125 -1.625 5.6875 -1.421875 5.515625 -1.234375 C 5.21875 -0.890625 4.78125 -0.71875 4.28125 -0.71875 C 2.859375 -0.71875 1.9375 -2.078125 1.9375 -4.203125 C 1.9375 -6.109375 2.765625 -7.375 4.0625 -7.375 C 4.984375 -7.375 5.8125 -6.578125 5.8125 -5.671875 Z M 5.8125 -1.734375 "/>
</symbol>
<symbol overflow="visible" id="glyph1-9">
<path style="stroke:none;" d="M 8.140625 -7.6875 L 5.765625 -7.6875 L 5.765625 -7.421875 C 6.3125 -7.375 6.578125 -7.203125 6.578125 -6.875 C 6.578125 -6.71875 6.546875 -6.546875 6.46875 -6.375 L 4.78125 -1.953125 L 3.046875 -6.3125 C 2.9375 -6.5625 2.890625 -6.796875 2.890625 -6.953125 C 2.890625 -7.265625 3.078125 -7.375 3.671875 -7.421875 L 3.671875 -7.6875 L 0.328125 -7.6875 L 0.328125 -7.421875 C 0.96875 -7.390625 1.09375 -7.21875 1.875 -5.46875 L 3.921875 -0.5625 C 3.96875 -0.46875 4.015625 -0.34375 4.0625 -0.203125 C 4.109375 -0.0625 4.171875 0.046875 4.21875 0.140625 C 4.25 0.203125 4.328125 0.234375 4.375 0.234375 C 4.46875 0.234375 4.59375 0.015625 4.84375 -0.609375 L 7.03125 -6.09375 C 7.53125 -7.265625 7.640625 -7.375 8.140625 -7.421875 Z M 8.140625 -7.6875 "/>
</symbol>
<symbol overflow="visible" id="glyph1-10">
<path style="stroke:none;" d="M 0.359375 0 L 4.390625 0 L 4.390625 -0.25 C 3.3125 -0.3125 3.125 -0.484375 3.109375 -1.4375 L 3.109375 -11.625 L 3.046875 -11.671875 C 2.171875 -11.390625 1.53125 -11.203125 0.328125 -10.90625 L 0.328125 -10.640625 L 0.421875 -10.640625 C 0.609375 -10.65625 0.8125 -10.671875 0.953125 -10.671875 C 1.5 -10.671875 1.671875 -10.4375 1.671875 -9.625 L 1.671875 -1.484375 C 1.65625 -0.5625 1.421875 -0.328125 0.359375 -0.25 Z M 0.359375 0 "/>
</symbol>
<symbol overflow="visible" id="glyph1-11">
<path style="stroke:none;" d="M 2.609375 -5.640625 C 3.625 -5.640625 4.015625 -5.609375 4.40625 -5.453125 C 5.484375 -5.0625 6.125 -4.09375 6.125 -2.921875 C 6.125 -1.46875 5.171875 -0.375 3.90625 -0.375 C 3.4375 -0.375 3.09375 -0.5 2.453125 -0.90625 C 1.96875 -1.21875 1.671875 -1.328125 1.390625 -1.328125 C 0.984375 -1.328125 0.734375 -1.09375 0.734375 -0.734375 C 0.734375 -0.140625 1.46875 0.234375 2.671875 0.234375 C 3.96875 0.234375 5.3125 -0.203125 6.125 -0.90625 C 6.9375 -1.609375 7.359375 -2.59375 7.359375 -3.734375 C 7.359375 -4.625 7.09375 -5.40625 6.609375 -5.9375 C 6.25 -6.3125 5.921875 -6.53125 5.1875 -6.84375 C 6.359375 -7.65625 6.78125 -8.28125 6.78125 -9.203125 C 6.78125 -10.609375 5.703125 -11.546875 4.109375 -11.546875 C 3.265625 -11.546875 2.515625 -11.25 1.890625 -10.703125 C 1.390625 -10.234375 1.125 -9.796875 0.765625 -8.78125 L 1.03125 -8.703125 C 1.703125 -9.96875 2.46875 -10.515625 3.546875 -10.515625 C 4.671875 -10.515625 5.4375 -9.78125 5.4375 -8.6875 C 5.4375 -8.078125 5.171875 -7.484375 4.75 -7.03125 C 4.234375 -6.53125 3.75 -6.265625 2.59375 -5.859375 Z M 2.609375 -5.640625 "/>
</symbol>
<symbol overflow="visible" id="glyph1-12">
<path style="stroke:none;" d="M 0.265625 0 L 5.125 0 C 7.109375 0 8.890625 -0.5625 9.953125 -1.515625 C 11.0625 -2.53125 11.703125 -4.046875 11.703125 -5.703125 C 11.703125 -7.234375 11.203125 -8.578125 10.25 -9.515625 C 9.078125 -10.6875 7.21875 -11.3125 4.890625 -11.3125 L 0.265625 -11.3125 L 0.265625 -10.984375 C 1.625 -10.859375 1.765625 -10.71875 1.78125 -9.4375 L 1.78125 -1.859375 C 1.765625 -0.609375 1.546875 -0.40625 0.265625 -0.328125 Z M 3.515625 -10 C 3.515625 -10.53125 3.6875 -10.671875 4.40625 -10.671875 C 5.890625 -10.671875 6.984375 -10.40625 7.8125 -9.8125 C 9.140625 -8.890625 9.84375 -7.421875 9.84375 -5.578125 C 9.84375 -3.5625 9.140625 -2.140625 7.75 -1.328125 C 6.875 -0.84375 5.890625 -0.625 4.40625 -0.625 C 3.71875 -0.625 3.515625 -0.78125 3.515625 -1.328125 Z M 3.515625 -10 "/>
</symbol>
<symbol overflow="visible" id="glyph1-13">
<path style="stroke:none;" d="M 11.90625 -11.3125 L 8.40625 -11.3125 L 8.40625 -10.984375 C 9.34375 -10.90625 9.65625 -10.734375 9.65625 -10.265625 C 9.65625 -9.984375 9.53125 -9.53125 9.328125 -9.015625 L 6.8125 -2.75 L 4.234375 -8.515625 C 3.671875 -9.78125 3.53125 -10.15625 3.53125 -10.421875 C 3.53125 -10.765625 3.78125 -10.90625 4.328125 -10.953125 C 4.40625 -10.953125 4.59375 -10.96875 4.8125 -10.984375 L 4.8125 -11.3125 L 0.265625 -11.3125 L 0.265625 -10.984375 C 1.109375 -10.953125 1.34375 -10.703125 2.078125 -9.1875 L 6.28125 0.1875 L 6.546875 0.1875 L 10.328125 -9.390625 C 10.890625 -10.734375 11.078125 -10.9375 11.90625 -10.984375 Z M 11.90625 -11.3125 "/>
</symbol>
<symbol overflow="visible" id="glyph1-14">
<path style="stroke:none;" d="M 5.015625 -11.3125 L 0.203125 -11.3125 L 0.203125 -10.984375 C 1.453125 -10.890625 1.65625 -10.671875 1.6875 -9.4375 L 1.6875 -1.859375 C 1.65625 -0.625 1.4375 -0.390625 0.203125 -0.328125 L 0.203125 0 L 9.390625 0 L 10.21875 -2.96875 L 9.78125 -2.96875 C 8.984375 -1.171875 8.25 -0.734375 6.046875 -0.671875 L 4.90625 -0.671875 C 3.59375 -0.703125 3.453125 -0.75 3.4375 -1.359375 L 3.4375 -9.4375 C 3.46875 -10.6875 3.6875 -10.90625 5.015625 -10.984375 Z M 5.015625 -11.3125 "/>
</symbol>
<symbol overflow="visible" id="glyph1-15">
<path style="stroke:none;" d="M 8.1875 -3.9375 L 8.1875 -7.90625 L 7.78125 -7.90625 C 7.59375 -6.5625 7.3125 -6.3125 5.90625 -6.28125 L 3.4375 -6.28125 L 3.4375 -10.078125 C 3.453125 -10.59375 3.5 -10.640625 3.984375 -10.65625 L 6.296875 -10.65625 C 8.28125 -10.625 8.625 -10.390625 8.890625 -8.859375 L 9.328125 -8.859375 L 9.28125 -11.3125 L 0.203125 -11.3125 L 0.203125 -10.984375 C 1.453125 -10.890625 1.65625 -10.671875 1.6875 -9.4375 L 1.6875 -2.046875 C 1.671875 -0.59375 1.5 -0.40625 0.203125 -0.328125 L 0.203125 0 L 4.984375 0 L 4.984375 -0.328125 C 3.6875 -0.375 3.453125 -0.609375 3.4375 -1.859375 L 3.4375 -5.578125 L 5.90625 -5.578125 C 7.3125 -5.5625 7.578125 -5.328125 7.78125 -3.9375 Z M 8.1875 -3.9375 "/>
</symbol>
<symbol overflow="visible" id="glyph1-16">
<path style="stroke:none;" d="M 9.796875 -3 C 9.296875 -1.171875 8.703125 -0.71875 6.859375 -0.65625 L 2.46875 -0.65625 L 9.859375 -11.046875 L 9.859375 -11.3125 L 0.875 -11.3125 L 0.53125 -8.390625 L 0.96875 -8.390625 C 1.265625 -10.109375 1.875 -10.609375 3.84375 -10.65625 L 7.609375 -10.65625 L 0.15625 -0.25 L 0.15625 0 L 9.78125 0 L 10.203125 -3 Z M 9.796875 -3 "/>
</symbol>
<symbol overflow="visible" id="glyph1-17">
<path style="stroke:none;" d="M 12.0625 -0.328125 C 11.28125 -0.375 11.125 -0.546875 10.515625 -1.8125 L 6.265625 -11.515625 L 5.921875 -11.515625 L 2.375 -3.125 C 1.28125 -0.625 1.078125 -0.359375 0.25 -0.328125 L 0.25 0 L 3.640625 0 L 3.640625 -0.328125 C 2.8125 -0.328125 2.46875 -0.53125 2.46875 -1.03125 C 2.46875 -1.234375 2.53125 -1.46875 2.609375 -1.6875 L 3.40625 -3.6875 L 7.875 -3.6875 L 8.578125 -2.046875 C 8.78125 -1.59375 8.890625 -1.140625 8.890625 -0.90625 C 8.890625 -0.484375 8.609375 -0.34375 7.703125 -0.328125 L 7.703125 0 L 12.0625 0 Z M 3.6875 -4.390625 L 5.65625 -9.078125 L 7.640625 -4.390625 Z M 3.6875 -4.390625 "/>
</symbol>
<symbol overflow="visible" id="glyph1-18">
<path style="stroke:none;" d="M 11.890625 -11.3125 L 7.828125 -11.3125 L 7.828125 -10.984375 C 8.75 -10.953125 9.015625 -10.828125 9.015625 -10.4375 C 9.015625 -10.171875 8.84375 -9.875 8.328125 -9.25 L 6.40625 -6.90625 L 5.6875 -7.90625 C 4.640625 -9.375 4.234375 -10.09375 4.234375 -10.46875 C 4.234375 -10.8125 4.484375 -10.953125 5.0625 -10.96875 L 5.53125 -10.984375 L 5.53125 -11.3125 L 0.375 -11.3125 L 0.375 -10.984375 C 1.484375 -10.9375 1.796875 -10.671875 3.46875 -8.296875 L 5.328125 -5.5625 L 2.640625 -2.265625 C 1.125 -0.46875 1.046875 -0.390625 0.171875 -0.328125 L 0.171875 0 L 4.15625 0 L 4.15625 -0.328125 C 3.140625 -0.390625 2.859375 -0.53125 2.859375 -0.921875 C 2.859375 -1.171875 3.109375 -1.609375 3.734375 -2.390625 L 5.765625 -4.921875 L 7.390625 -2.53125 C 7.96875 -1.65625 8.265625 -1.109375 8.265625 -0.859375 C 8.265625 -0.546875 8 -0.375 7.40625 -0.359375 C 7.34375 -0.359375 7.15625 -0.34375 6.953125 -0.328125 L 6.953125 0 L 12.015625 0 L 12.015625 -0.328125 C 11.125 -0.421875 10.859375 -0.59375 10.125 -1.59375 L 6.84375 -6.265625 L 9.34375 -9.375 C 10.453125 -10.703125 10.796875 -10.90625 11.890625 -10.984375 Z M 11.890625 -11.3125 "/>
</symbol>
<symbol overflow="visible" id="glyph1-19">
<path style="stroke:none;" d="M 0.3125 0 L 5.375 0 L 5.375 -0.328125 C 3.984375 -0.359375 3.734375 -0.59375 3.703125 -1.859375 L 3.703125 -9.4375 C 3.734375 -10.71875 3.96875 -10.9375 5.375 -10.984375 L 5.375 -11.3125 L 0.3125 -11.3125 L 0.3125 -10.984375 C 1.765625 -10.890625 1.953125 -10.71875 1.96875 -9.4375 L 1.96875 -1.859375 C 1.953125 -0.5625 1.734375 -0.375 0.3125 -0.328125 Z M 0.3125 0 "/>
</symbol>
<symbol overflow="visible" id="glyph1-20">
<path style="stroke:none;" d="M 12.109375 -6.046875 L 7.75 -6.046875 L 7.75 -5.734375 C 9.078125 -5.65625 9.21875 -5.515625 9.25 -4.21875 L 9.25 -1.453125 C 9.25 -0.90625 8.234375 -0.4375 6.984375 -0.4375 C 4.203125 -0.4375 2.5 -2.390625 2.5 -5.5625 C 2.5 -7.171875 2.96875 -8.734375 3.71875 -9.5625 C 4.453125 -10.40625 5.53125 -10.859375 6.6875 -10.859375 C 7.65625 -10.859375 8.5 -10.53125 9.15625 -9.921875 C 9.671875 -9.421875 9.9375 -8.984375 10.359375 -7.9375 L 10.765625 -7.9375 L 10.625 -11.546875 L 10.25 -11.546875 C 10.140625 -11.203125 9.84375 -10.984375 9.484375 -10.984375 C 9.3125 -10.984375 9.03125 -11.03125 8.734375 -11.15625 C 7.953125 -11.40625 7.15625 -11.546875 6.390625 -11.546875 C 2.984375 -11.546875 0.546875 -9.03125 0.546875 -5.546875 C 0.546875 -3.875 1 -2.59375 1.96875 -1.59375 C 3.09375 -0.40625 4.75 0.234375 6.625 0.234375 C 8.109375 0.234375 10.234375 -0.359375 10.90625 -0.953125 L 10.90625 -4.421875 C 10.953125 -5.46875 11.140625 -5.671875 12.109375 -5.734375 Z M 12.109375 -6.046875 "/>
</symbol>
<symbol overflow="visible" id="glyph1-21">
<path style="stroke:none;" d="M 7.640625 -11.546875 L 7.28125 -11.546875 C 7.203125 -11.171875 7.015625 -10.96875 6.734375 -10.96875 C 6.5625 -10.96875 6.265625 -11.03125 5.984375 -11.171875 C 5.34375 -11.40625 4.71875 -11.546875 4.15625 -11.546875 C 3.4375 -11.546875 2.6875 -11.25 2.125 -10.765625 C 1.515625 -10.234375 1.21875 -9.515625 1.21875 -8.625 C 1.21875 -7.265625 1.96875 -6.296875 3.875 -5.296875 C 5.109375 -4.625 6 -3.9375 6.421875 -3.296875 C 6.578125 -3.078125 6.65625 -2.71875 6.65625 -2.28125 C 6.65625 -1.15625 5.8125 -0.375 4.5625 -0.375 C 3.015625 -0.375 1.96875 -1.3125 1.109375 -3.40625 L 0.71875 -3.40625 L 1.234375 0.21875 L 1.609375 0.21875 C 1.625 -0.109375 1.828125 -0.34375 2.078125 -0.34375 C 2.265625 -0.34375 2.5625 -0.265625 2.890625 -0.15625 C 3.53125 0.109375 4.234375 0.234375 4.90625 0.234375 C 6.875 0.234375 8.390625 -1.109375 8.390625 -2.890625 C 8.390625 -4.28125 7.453125 -5.375 5.1875 -6.609375 C 3.40625 -7.578125 2.6875 -8.328125 2.6875 -9.28125 C 2.6875 -10.21875 3.40625 -10.84375 4.453125 -10.84375 C 5.21875 -10.84375 5.9375 -10.515625 6.546875 -9.90625 C 7.078125 -9.359375 7.3125 -8.921875 7.578125 -7.90625 L 8.015625 -7.90625 Z M 7.640625 -11.546875 "/>
</symbol>
<symbol overflow="visible" id="glyph1-22">
<path style="stroke:none;" d="M 7.046875 -10.984375 C 8.078125 -10.9375 8.21875 -10.859375 8.21875 -10.453125 C 8.21875 -10.078125 7.828125 -9.5625 6.875 -8.6875 L 3.859375 -5.9375 L 3.859375 -9.4375 C 3.875 -10.71875 4.046875 -10.875 5.4375 -10.984375 L 5.4375 -11.3125 L 0.578125 -11.3125 L 0.578125 -10.984375 C 1.890625 -10.890625 2.078125 -10.6875 2.125 -9.4375 L 2.125 -2.046875 C 2.09375 -0.59375 1.90625 -0.40625 0.578125 -0.328125 L 0.578125 0 L 5.390625 0 L 5.390625 -0.328125 C 4.078125 -0.40625 3.875 -0.59375 3.859375 -1.859375 L 3.859375 -5.0625 L 4.296875 -5.40625 L 6.109375 -3.625 C 7.421875 -2.3125 8.328125 -1.125 8.328125 -0.71875 C 8.328125 -0.46875 8.109375 -0.359375 7.609375 -0.34375 C 7.53125 -0.34375 7.34375 -0.34375 7.140625 -0.328125 L 7.140625 0 L 12.34375 0 L 12.34375 -0.328125 C 11.453125 -0.34375 11.21875 -0.515625 9.671875 -2.171875 L 5.6875 -6.4375 L 8.9375 -9.65625 C 10.09375 -10.765625 10.359375 -10.890625 11.53125 -10.984375 L 11.53125 -11.3125 L 7.046875 -11.3125 Z M 7.046875 -10.984375 "/>
</symbol>
<symbol overflow="visible" id="glyph1-23">
<path style="stroke:none;" d="M 0.265625 -10.984375 C 1.53125 -10.84375 1.6875 -10.6875 1.703125 -9.4375 L 1.703125 -2.046875 C 1.6875 -0.59375 1.578125 -0.4375 0.265625 -0.328125 L 0.265625 0 L 5.0625 0 L 5.0625 -0.328125 C 3.703125 -0.359375 3.46875 -0.59375 3.453125 -1.859375 L 3.453125 -4.96875 C 3.890625 -4.9375 4.1875 -4.921875 4.625 -4.921875 C 5.984375 -4.921875 6.875 -5.09375 7.609375 -5.5 C 8.640625 -6.046875 9.25 -7.09375 9.25 -8.21875 C 9.25 -8.9375 9.015625 -9.578125 8.5625 -10.078125 C 7.875 -10.828125 6.390625 -11.3125 4.78125 -11.3125 L 0.265625 -11.3125 Z M 3.453125 -10.09375 C 3.453125 -10.546875 3.5625 -10.671875 4.03125 -10.671875 C 6.34375 -10.671875 7.390625 -9.875 7.390625 -8.109375 C 7.390625 -6.453125 6.390625 -5.609375 4.421875 -5.609375 C 4.078125 -5.609375 3.84375 -5.625 3.453125 -5.65625 Z M 3.453125 -10.09375 "/>
</symbol>
<symbol overflow="visible" id="glyph1-24">
<path style="stroke:none;" d="M 7.671875 -11.3125 L 1.34375 -11.3125 L 0.34375 -8.796875 L 0.625 -8.65625 C 1.328125 -9.796875 1.65625 -10.03125 2.609375 -10.046875 L 6.3125 -10.046875 L 2.9375 0.140625 L 4.046875 0.140625 L 7.671875 -11.03125 Z M 7.671875 -11.3125 "/>
</symbol>
<symbol overflow="visible" id="glyph2-0">
<path style="stroke:none;" d=""/>
</symbol>
<symbol overflow="visible" id="glyph2-1">
<path style="stroke:none;" d="M 5.640625 -2.578125 C 5.640625 -3.453125 5.578125 -3.984375 5.40625 -4.40625 C 5.03125 -5.359375 4.15625 -5.921875 3.078125 -5.921875 C 1.46875 -5.921875 0.4375 -4.703125 0.4375 -2.8125 C 0.4375 -0.90625 1.4375 0.25 3.0625 0.25 C 4.375 0.25 5.296875 -0.5 5.515625 -1.75 L 4.59375 -1.75 C 4.34375 -0.984375 3.828125 -0.59375 3.09375 -0.59375 C 2.515625 -0.59375 2.015625 -0.859375 1.703125 -1.34375 C 1.484375 -1.671875 1.40625 -2 1.390625 -2.578125 Z M 1.421875 -3.328125 C 1.5 -4.390625 2.140625 -5.078125 3.0625 -5.078125 C 4 -5.078125 4.65625 -4.359375 4.65625 -3.328125 Z M 1.421875 -3.328125 "/>
</symbol>
<symbol overflow="visible" id="glyph2-2">
<path style="stroke:none;" d="M 5.4375 -8.015625 L 4.53125 -8.015625 L 4.53125 -5.03125 C 4.140625 -5.625 3.53125 -5.921875 2.765625 -5.921875 C 1.265625 -5.921875 0.28125 -4.734375 0.28125 -2.890625 C 0.28125 -0.953125 1.234375 0.25 2.796875 0.25 C 3.59375 0.25 4.140625 -0.046875 4.625 -0.765625 L 4.625 0 L 5.4375 0 Z M 2.921875 -5.078125 C 3.90625 -5.078125 4.53125 -4.203125 4.53125 -2.8125 C 4.53125 -1.484375 3.890625 -0.609375 2.921875 -0.609375 C 1.90625 -0.609375 1.25 -1.5 1.25 -2.84375 C 1.25 -4.1875 1.90625 -5.078125 2.921875 -5.078125 Z M 2.921875 -5.078125 "/>
</symbol>
<symbol overflow="visible" id="glyph2-3">
<path style="stroke:none;" d="M 4.4375 -5.765625 L 4.4375 -4.921875 C 3.984375 -5.625 3.46875 -5.921875 2.75 -5.921875 C 1.359375 -5.921875 0.390625 -4.625 0.390625 -2.78125 C 0.390625 -1.8125 0.609375 -1.109375 1.109375 -0.53125 C 1.546875 -0.015625 2.09375 0.25 2.6875 0.25 C 3.375 0.25 3.875 -0.0625 4.359375 -0.78125 L 4.359375 -0.484375 C 4.359375 1.0625 3.921875 1.625 2.78125 1.625 C 2 1.625 1.59375 1.3125 1.5 0.65625 L 0.578125 0.65625 C 0.65625 1.734375 1.5 2.390625 2.765625 2.390625 C 3.609375 2.390625 4.3125 2.125 4.6875 1.65625 C 5.125 1.125 5.296875 0.40625 5.296875 -0.953125 L 5.296875 -5.765625 Z M 2.84375 -5.078125 C 3.8125 -5.078125 4.359375 -4.265625 4.359375 -2.8125 C 4.359375 -1.40625 3.796875 -0.59375 2.84375 -0.59375 C 1.890625 -0.59375 1.34375 -1.421875 1.34375 -2.84375 C 1.34375 -4.25 1.890625 -5.078125 2.84375 -5.078125 Z M 2.84375 -5.078125 "/>
</symbol>
<symbol overflow="visible" id="glyph3-0">
<path style="stroke:none;" d=""/>
</symbol>
<symbol overflow="visible" id="glyph3-1">
<path style="stroke:none;" d="M 0.609375 -4.609375 L 0.609375 0 L 1.359375 0 L 1.359375 -2.546875 C 1.359375 -3.484375 1.84375 -4.09375 2.609375 -4.09375 C 3.1875 -4.09375 3.546875 -3.75 3.546875 -3.1875 L 3.546875 0 L 4.28125 0 L 4.28125 -3.484375 C 4.28125 -4.25 3.71875 -4.734375 2.828125 -4.734375 C 2.140625 -4.734375 1.703125 -4.484375 1.296875 -3.828125 L 1.296875 -4.609375 Z M 0.609375 -4.609375 "/>
</symbol>
<symbol overflow="visible" id="glyph3-2">
<path style="stroke:none;" d="M 4.515625 -2.0625 C 4.515625 -2.765625 4.453125 -3.1875 4.328125 -3.53125 C 4.03125 -4.28125 3.328125 -4.734375 2.46875 -4.734375 C 1.171875 -4.734375 0.359375 -3.765625 0.359375 -2.25 C 0.359375 -0.71875 1.140625 0.203125 2.453125 0.203125 C 3.5 0.203125 4.234375 -0.390625 4.421875 -1.40625 L 3.671875 -1.40625 C 3.46875 -0.796875 3.0625 -0.46875 2.46875 -0.46875 C 2 -0.46875 1.609375 -0.6875 1.359375 -1.078125 C 1.1875 -1.34375 1.125 -1.59375 1.125 -2.0625 Z M 1.140625 -2.65625 C 1.203125 -3.515625 1.71875 -4.0625 2.453125 -4.0625 C 3.203125 -4.0625 3.71875 -3.484375 3.71875 -2.65625 Z M 1.140625 -2.65625 "/>
</symbol>
<symbol overflow="visible" id="glyph3-3">
<path style="stroke:none;" d="M 4.875 0 L 6.234375 -4.609375 L 5.40625 -4.609375 L 4.484375 -1.015625 L 3.578125 -4.609375 L 2.6875 -4.609375 L 1.796875 -1.015625 L 0.859375 -4.609375 L 0.046875 -4.609375 L 1.390625 0 L 2.21875 0 L 3.109375 -3.609375 L 4.03125 0 Z M 4.875 0 "/>
</symbol>
<symbol overflow="visible" id="glyph3-4">
<path style="stroke:none;" d="M 1.625 -2.71875 L 3.640625 -2.71875 C 4.140625 -2.71875 4.53125 -2.875 4.875 -3.171875 C 5.265625 -3.53125 5.421875 -3.9375 5.421875 -4.53125 C 5.421875 -5.734375 4.71875 -6.40625 3.453125 -6.40625 L 0.796875 -6.40625 L 0.796875 0 L 1.625 0 Z M 1.625 -3.4375 L 1.625 -5.6875 L 3.328125 -5.6875 C 4.109375 -5.6875 4.578125 -5.265625 4.578125 -4.5625 C 4.578125 -3.859375 4.109375 -3.4375 3.328125 -3.4375 Z M 1.625 -3.4375 "/>
</symbol>
<symbol overflow="visible" id="glyph3-5">
<path style="stroke:none;" d="M 1.515625 -2.25 L 2.5625 -3.296875 L 4.828125 0 L 5.78125 0 L 3.15625 -3.796875 L 5.765625 -6.40625 L 4.703125 -6.40625 L 1.515625 -3.171875 L 1.515625 -6.40625 L 0.6875 -6.40625 L 0.6875 0 L 1.515625 0 Z M 1.515625 -2.25 "/>
</symbol>
</g>
<clipPath id="clip1">
  <path d="M 8.21875 5.480469 L 797.84375 5.480469 L 797.84375 855.78125 L 8.21875 855.78125 Z M 8.21875 5.480469 "/>
</clipPath>
</defs>
<g id="surface31">
<rect x="0" y="0" width="864" height="864" style="fill:rgb(100%,100%,100%);fill-opacity:1;stroke:none;"/>
<rect x="0" y="0" width="864" height="864" style="fill:rgb(100%,100%,100%);fill-opacity:1;stroke:none;"/>
<path style="fill:none;stroke-width:1.066978;stroke-linecap:round;stroke-linejoin:round;stroke:rgb(100%,100%,100%);stroke-opacity:1;stroke-miterlimit:10;" d="M 0 864 L 864 864 L 864 0 L 0 0 Z M 0 864 "/>
<g clip-path="url(#clip1)" clip-rule="nonzero">
<path style=" stroke:none;fill-rule:nonzero;fill:rgb(92.156863%,92.156863%,92.156863%);fill-opacity:1;" d="M 8.21875 855.78125 L 797.84375 855.78125 L 797.84375 5.480469 L 8.21875 5.480469 Z M 8.21875 855.78125 "/>
</g>
<path style="fill:none;stroke-width:1.066978;stroke-linecap:butt;stroke-linejoin:round;stroke:rgb(97.254902%,46.27451%,42.745098%);stroke-opacity:1;stroke-miterlimit:1;" d="M 761.953125 817.128906 L 761.941406 814.578125 L 761.933594 812.027344 L 761.925781 809.472656 L 761.914062 806.921875 L 761.90625 804.367188 L 761.898438 801.816406 L 761.886719 799.261719 L 761.878906 796.710938 L 761.871094 794.15625 L 761.863281 791.605469 L 761.851562 789.054688 L 761.84375 786.5 L 761.835938 783.949219 L 761.824219 781.394531 L 761.816406 778.84375 L 761.808594 776.289062 L 761.796875 773.738281 L 761.789062 771.183594 L 761.78125 768.632812 L 761.773438 766.078125 L 761.761719 763.527344 L 761.753906 760.976562 L 761.746094 758.421875 L 761.734375 755.871094 L 761.726562 753.316406 L 761.71875 750.765625 L 761.707031 748.210938 L 761.699219 745.660156 L 761.691406 743.105469 L 761.683594 740.554688 L 761.671875 738.003906 L 761.664062 735.449219 L 761.65625 732.898438 L 761.644531 730.34375 L 761.636719 727.792969 L 761.628906 725.238281 L 761.617188 722.6875 L 761.609375 720.132812 L 761.601562 717.582031 L 761.59375 715.027344 L 761.582031 712.476562 L 761.574219 709.925781 L 761.566406 707.371094 L 761.554688 704.820312 L 761.546875 702.265625 L 761.539062 699.714844 L 761.527344 697.160156 L 761.519531 694.609375 L 761.511719 692.054688 L 761.503906 689.503906 L 761.492188 686.949219 L 761.476562 681.847656 L 761.464844 679.292969 L 761.457031 676.742188 L 761.449219 674.1875 L 761.4375 671.636719 L 761.429688 669.082031 L 761.421875 666.53125 L 761.414062 663.976562 L 761.402344 661.425781 L 761.394531 658.875 L 761.386719 656.320312 L 761.375 653.769531 L 761.367188 651.214844 L 761.359375 648.664062 L 761.347656 646.109375 L 761.339844 643.558594 L 761.332031 641.003906 L 761.324219 638.453125 L 761.3125 635.898438 L 761.296875 630.796875 L 761.285156 628.242188 L 761.277344 625.691406 L 761.269531 623.136719 L 761.257812 620.585938 L 761.25 618.03125 L 761.242188 615.480469 L 761.234375 612.925781 L 761.222656 610.375 L 761.214844 607.824219 L 761.207031 605.269531 L 761.195312 602.71875 L 761.1875 600.164062 L 761.179688 597.613281 L 761.167969 595.058594 L 761.160156 592.507812 L 761.152344 589.953125 L 761.144531 587.402344 L 761.132812 584.847656 L 761.117188 579.746094 L 761.113281 579.171875 "/>
<path style="fill-rule:nonzero;fill:rgb(97.254902%,46.27451%,42.745098%);fill-opacity:1;stroke-width:1.066978;stroke-linecap:butt;stroke-linejoin:round;stroke:rgb(97.254902%,46.27451%,42.745098%);stroke-opacity:1;stroke-miterlimit:1;" d="M 763.601562 585.929688 L 761.113281 579.171875 L 758.675781 585.949219 Z M 763.601562 585.929688 "/>
<path style="fill:none;stroke-width:1.066978;stroke-linecap:butt;stroke-linejoin:round;stroke:rgb(97.254902%,46.27451%,42.745098%);stroke-opacity:1;stroke-miterlimit:1;" d="M 548.835938 454.996094 L 548.511719 453.140625 L 548.191406 451.285156 L 547.867188 449.433594 L 547.546875 447.578125 L 547.222656 445.722656 L 546.902344 443.867188 L 546.578125 442.011719 L 546.257812 440.160156 L 545.933594 438.304688 L 545.613281 436.449219 L 545.289062 434.59375 L 544.96875 432.738281 L 544.644531 430.886719 L 544.324219 429.03125 L 544 427.175781 L 543.679688 425.320312 L 543.355469 423.464844 L 543.035156 421.613281 L 542.710938 419.757812 L 542.390625 417.902344 L 542.066406 416.046875 L 541.746094 414.191406 L 541.421875 412.339844 L 541.101562 410.484375 L 540.777344 408.628906 L 540.457031 406.773438 L 540.132812 404.917969 L 539.8125 403.066406 L 539.488281 401.210938 L 539.167969 399.355469 L 538.84375 397.5 L 538.523438 395.644531 L 538.199219 393.792969 L 537.878906 391.9375 L 537.554688 390.082031 L 537.234375 388.226562 L 536.910156 386.371094 L 536.589844 384.519531 L 536.265625 382.664062 L 535.945312 380.808594 L 535.621094 378.953125 L 535.300781 377.097656 L 534.976562 375.246094 L 534.65625 373.390625 L 534.332031 371.535156 L 534.011719 369.679688 L 533.6875 367.824219 L 533.367188 365.972656 L 533.042969 364.117188 L 532.722656 362.261719 L 532.398438 360.40625 L 532.078125 358.550781 L 531.753906 356.699219 L 531.433594 354.84375 L 531.109375 352.988281 L 530.789062 351.132812 L 530.464844 349.277344 L 530.140625 347.425781 L 529.820312 345.570312 L 529.496094 343.714844 L 529.175781 341.859375 L 528.851562 340.003906 L 528.53125 338.152344 L 528.207031 336.296875 L 527.886719 334.441406 L 527.5625 332.585938 L 527.242188 330.730469 L 526.917969 328.878906 L 526.597656 327.023438 L 526.273438 325.167969 L 525.953125 323.3125 L 525.628906 321.457031 L 525.308594 319.605469 L 524.984375 317.75 L 524.664062 315.894531 L 524.339844 314.039062 L 524.019531 312.183594 L 523.695312 310.332031 L 523.375 308.476562 L 523.050781 306.621094 L 522.730469 304.765625 L 522.40625 302.910156 L 522.085938 301.058594 L 521.761719 299.203125 L 521.441406 297.347656 L 521.117188 295.492188 L 520.796875 293.636719 L 520.472656 291.785156 L 520.152344 289.929688 L 520 289.050781 "/>
<path style="fill-rule:nonzero;fill:rgb(97.254902%,46.27451%,42.745098%);fill-opacity:1;stroke-width:1.066978;stroke-linecap:butt;stroke-linejoin:round;stroke:rgb(97.254902%,46.27451%,42.745098%);stroke-opacity:1;stroke-miterlimit:1;" d="M 523.582031 295.292969 L 520 289.050781 L 518.730469 296.136719 Z M 523.582031 295.292969 "/>
<path style="fill:none;stroke-width:1.066978;stroke-linecap:butt;stroke-linejoin:round;stroke:rgb(97.254902%,46.27451%,42.745098%);stroke-opacity:1;stroke-miterlimit:1;" d="M 548.835938 454.996094 L 544.742188 455.136719 L 540.644531 455.28125 L 536.550781 455.421875 L 532.457031 455.566406 L 528.363281 455.707031 L 524.269531 455.851562 L 520.171875 455.992188 L 516.078125 456.132812 L 511.984375 456.277344 L 507.890625 456.417969 L 503.796875 456.5625 L 499.699219 456.703125 L 495.605469 456.847656 L 487.417969 457.128906 L 483.324219 457.273438 L 479.226562 457.414062 L 475.132812 457.558594 L 471.039062 457.699219 L 466.945312 457.84375 L 462.851562 457.984375 L 458.753906 458.125 L 454.660156 458.269531 L 450.566406 458.410156 L 446.472656 458.554688 L 442.378906 458.695312 L 438.28125 458.839844 L 430.09375 459.121094 L 426 459.265625 L 421.90625 459.40625 L 417.808594 459.550781 L 413.714844 459.691406 L 409.621094 459.835938 L 401.433594 460.117188 L 397.335938 460.261719 L 393.242188 460.402344 L 389.148438 460.546875 L 385.054688 460.6875 L 380.960938 460.832031 L 376.863281 460.972656 L 372.769531 461.113281 L 368.675781 461.257812 L 364.582031 461.398438 L 360.484375 461.542969 L 356.390625 461.683594 L 352.296875 461.828125 L 344.109375 462.109375 L 340.011719 462.253906 L 335.917969 462.394531 L 331.824219 462.539062 L 327.730469 462.679688 L 323.636719 462.824219 L 319.539062 462.964844 L 315.445312 463.105469 L 311.351562 463.25 L 307.257812 463.390625 L 303.164062 463.535156 L 299.066406 463.675781 L 294.972656 463.820312 L 286.785156 464.101562 L 282.691406 464.246094 L 278.59375 464.386719 L 274.5 464.53125 L 270.40625 464.671875 L 266.3125 464.816406 L 262.21875 464.957031 L 258.121094 465.097656 L 254.027344 465.242188 L 249.933594 465.382812 L 245.839844 465.527344 L 241.746094 465.667969 L 237.648438 465.8125 L 229.460938 466.09375 L 225.367188 466.238281 L 221.273438 466.378906 L 217.175781 466.523438 L 213.082031 466.664062 L 208.988281 466.808594 L 200.800781 467.089844 L 196.703125 467.234375 L 192.609375 467.375 L 188.515625 467.519531 L 184.421875 467.660156 L 180.324219 467.804688 L 172.136719 468.085938 L 168.042969 468.230469 L 163.949219 468.371094 L 159.851562 468.515625 L 158.210938 468.570312 "/>
<path style="fill-rule:nonzero;fill:rgb(97.254902%,46.27451%,42.745098%);fill-opacity:1;stroke-width:1.066978;stroke-linecap:butt;stroke-linejoin:round;stroke:rgb(97.254902%,46.27451%,42.745098%);stroke-opacity:1;stroke-miterlimit:1;" d="M 164.886719 465.875 L 158.210938 468.570312 L 165.058594 470.796875 Z M 164.886719 465.875 "/>
<path style="fill:none;stroke-width:1.066978;stroke-linecap:butt;stroke-linejoin:round;stroke:rgb(97.254902%,46.27451%,42.745098%);stroke-opacity:1;stroke-miterlimit:1;" d="M 548.835938 454.996094 L 547.007812 460.800781 L 546.097656 463.703125 L 545.183594 466.605469 L 544.269531 469.511719 L 543.355469 472.414062 L 542.445312 475.316406 L 540.617188 481.121094 L 539.707031 484.023438 L 537.878906 489.828125 L 536.964844 492.734375 L 536.054688 495.636719 L 533.3125 504.34375 L 532.402344 507.246094 L 530.574219 513.050781 L 529.664062 515.957031 L 526.921875 524.664062 L 526.011719 527.566406 L 523.269531 536.273438 L 522.359375 539.175781 L 521.445312 542.082031 L 519.617188 547.886719 L 518.707031 550.789062 L 516.878906 556.59375 L 515.96875 559.496094 L 515.054688 562.398438 L 514.140625 565.304688 L 513.226562 568.207031 L 512.316406 571.109375 L 509.574219 579.816406 L 508.664062 582.71875 L 507.75 585.621094 L 506.835938 588.527344 L 505.921875 591.429688 L 505.011719 594.332031 L 503.183594 600.136719 L 502.273438 603.039062 L 500.445312 608.84375 L 499.53125 611.75 L 498.621094 614.652344 L 495.878906 623.359375 L 494.96875 626.261719 L 492.226562 634.96875 L 491.316406 637.875 L 489.488281 643.679688 L 488.578125 646.582031 L 485.835938 655.289062 L 484.925781 658.191406 L 484.011719 661.097656 L 482.183594 666.902344 L 481.273438 669.804688 L 478.53125 678.511719 L 477.621094 681.414062 L 476.707031 684.320312 L 475.792969 687.222656 L 474.882812 690.125 L 472.140625 698.832031 L 471.230469 701.734375 L 469.402344 707.539062 L 468.488281 710.445312 L 467.578125 713.347656 L 464.835938 722.054688 L 463.925781 724.957031 L 463.011719 727.859375 L 462.871094 728.308594 "/>
<path style="fill-rule:nonzero;fill:rgb(97.254902%,46.27451%,42.745098%);fill-opacity:1;stroke-width:1.066978;stroke-linecap:butt;stroke-linejoin:round;stroke:rgb(97.254902%,46.27451%,42.745098%);stroke-opacity:1;stroke-miterlimit:1;" d="M 462.550781 721.117188 L 462.871094 728.308594 L 467.25 722.59375 Z M 462.550781 721.117188 "/>
<path style="fill:none;stroke-width:1.066978;stroke-linecap:butt;stroke-linejoin:round;stroke:rgb(97.254902%,46.27451%,42.745098%);stroke-opacity:1;stroke-miterlimit:1;" d="M 548.835938 454.996094 L 550.980469 456.101562 L 553.121094 457.207031 L 561.699219 461.628906 L 563.839844 462.734375 L 572.417969 467.15625 L 574.558594 468.261719 L 583.136719 472.683594 L 585.277344 473.789062 L 591.710938 477.105469 L 593.851562 478.210938 L 598.140625 480.421875 L 600.285156 481.523438 L 602.429688 482.628906 L 604.570312 483.734375 L 613.148438 488.15625 L 615.289062 489.261719 L 621.722656 492.578125 L 623.863281 493.683594 L 632.441406 498.105469 L 634.582031 499.210938 L 643.160156 503.632812 L 645.300781 504.738281 L 653.878906 509.160156 L 656.019531 510.265625 L 662.453125 513.582031 L 664.59375 514.6875 L 673.171875 519.109375 L 675.3125 520.214844 L 683.890625 524.636719 L 686.03125 525.742188 L 692.464844 529.058594 L 694.605469 530.164062 L 696.75 531.269531 L 698.894531 532.371094 L 703.183594 534.582031 L 705.324219 535.6875 L 713.902344 540.109375 L 716.042969 541.214844 L 724.621094 545.636719 L 726.761719 546.742188 L 733.195312 550.058594 L 735.335938 551.164062 L 743.914062 555.585938 L 746.054688 556.691406 L 747.957031 557.671875 "/>
<path style="fill-rule:nonzero;fill:rgb(97.254902%,46.27451%,42.745098%);fill-opacity:1;stroke-width:1.066978;stroke-linecap:butt;stroke-linejoin:round;stroke:rgb(97.254902%,46.27451%,42.745098%);stroke-opacity:1;stroke-miterlimit:1;" d="M 740.816406 556.757812 L 747.957031 557.671875 L 743.074219 552.382812 Z M 740.816406 556.757812 "/>
<path style="fill:none;stroke-width:1.066978;stroke-linecap:butt;stroke-linejoin:round;stroke:rgb(97.254902%,46.27451%,42.745098%);stroke-opacity:1;stroke-miterlimit:1;" d="M 548.835938 454.996094 L 547.011719 455.902344 L 545.1875 456.8125 L 543.359375 457.71875 L 539.710938 459.53125 L 537.886719 460.441406 L 534.238281 462.253906 L 532.410156 463.160156 L 530.585938 464.070312 L 525.113281 466.789062 L 523.289062 467.699219 L 521.464844 468.605469 L 519.636719 469.511719 L 517.8125 470.417969 L 515.988281 471.328125 L 510.515625 474.046875 L 508.6875 474.957031 L 503.214844 477.675781 L 501.390625 478.585938 L 499.566406 479.492188 L 497.738281 480.398438 L 495.914062 481.304688 L 494.089844 482.214844 L 488.617188 484.933594 L 486.792969 485.84375 L 484.964844 486.75 L 481.316406 488.5625 L 479.492188 489.472656 L 475.84375 491.285156 L 474.015625 492.191406 L 472.191406 493.101562 L 466.71875 495.820312 L 464.894531 496.730469 L 463.066406 497.636719 L 461.242188 498.542969 L 459.417969 499.453125 L 453.945312 502.171875 L 452.121094 503.082031 L 450.292969 503.988281 L 446.644531 505.800781 L 444.820312 506.710938 L 441.171875 508.523438 L 439.34375 509.429688 L 437.519531 510.339844 L 432.046875 513.058594 L 430.222656 513.96875 L 428.394531 514.875 L 424.746094 516.6875 L 422.921875 517.597656 L 417.449219 520.316406 L 415.621094 521.226562 L 410.148438 523.945312 L 408.324219 524.855469 L 406.5 525.761719 L 404.671875 526.667969 L 402.847656 527.574219 L 401.023438 528.484375 L 395.550781 531.203125 L 393.722656 532.113281 L 388.25 534.832031 L 386.425781 535.742188 L 382.777344 537.554688 L 380.949219 538.460938 L 379.953125 538.960938 "/>
<path style="fill-rule:nonzero;fill:rgb(97.254902%,46.27451%,42.745098%);fill-opacity:1;stroke-width:1.066978;stroke-linecap:butt;stroke-linejoin:round;stroke:rgb(97.254902%,46.27451%,42.745098%);stroke-opacity:1;stroke-miterlimit:1;" d="M 384.914062 533.742188 L 379.953125 538.960938 L 387.105469 538.152344 Z M 384.914062 533.742188 "/>
<path style="fill:none;stroke-width:1.066978;stroke-linecap:butt;stroke-linejoin:round;stroke:rgb(97.254902%,46.27451%,42.745098%);stroke-opacity:1;stroke-miterlimit:1;" d="M 761.0625 564.429688 L 758.597656 561.46875 L 756.128906 558.507812 L 753.664062 555.550781 L 751.199219 552.589844 L 748.730469 549.628906 L 743.800781 543.707031 L 741.335938 540.75 L 738.867188 537.789062 L 733.9375 531.867188 L 731.46875 528.910156 L 726.539062 522.988281 L 724.070312 520.027344 L 721.605469 517.066406 L 719.140625 514.109375 L 716.675781 511.148438 L 714.207031 508.1875 L 711.742188 505.226562 L 709.277344 502.269531 L 706.808594 499.308594 L 699.414062 490.425781 L 696.945312 487.46875 L 692.015625 481.546875 L 689.546875 478.585938 L 687.082031 475.625 L 684.617188 472.667969 L 682.148438 469.707031 L 677.21875 463.785156 L 674.753906 460.828125 L 672.285156 457.867188 L 667.355469 451.945312 L 664.886719 448.984375 L 662.421875 446.027344 L 657.492188 440.105469 L 655.023438 437.144531 L 652.558594 434.1875 L 650.09375 431.226562 L 647.625 428.265625 L 642.695312 422.34375 L 640.226562 419.386719 L 632.832031 410.503906 L 630.363281 407.546875 L 625.433594 401.625 L 622.964844 398.664062 L 620.5 395.703125 L 618.035156 392.746094 L 615.570312 389.785156 L 613.101562 386.824219 L 610.636719 383.863281 L 608.171875 380.90625 L 605.703125 377.945312 L 600.773438 372.023438 L 598.304688 369.0625 L 595.839844 366.105469 L 590.910156 360.183594 L 588.441406 357.222656 L 585.976562 354.265625 L 583.511719 351.304688 L 581.042969 348.34375 L 576.113281 342.421875 L 573.644531 339.464844 L 566.25 330.582031 L 563.78125 327.625 L 558.851562 321.703125 L 556.382812 318.742188 L 553.917969 315.78125 L 551.453125 312.824219 L 548.988281 309.863281 L 546.519531 306.902344 L 544.054688 303.941406 L 541.589844 300.984375 L 539.121094 298.023438 L 534.191406 292.101562 L 531.722656 289.140625 L 529.257812 286.183594 L 528.40625 285.160156 "/>
<path style="fill-rule:nonzero;fill:rgb(97.254902%,46.27451%,42.745098%);fill-opacity:1;stroke-width:1.066978;stroke-linecap:butt;stroke-linejoin:round;stroke:rgb(97.254902%,46.27451%,42.745098%);stroke-opacity:1;stroke-miterlimit:1;" d="M 534.628906 288.78125 L 528.40625 285.160156 L 530.84375 291.933594 Z M 534.628906 288.78125 "/>
<path style="fill:none;stroke-width:1.066978;stroke-linecap:butt;stroke-linejoin:round;stroke:rgb(97.254902%,46.27451%,42.745098%);stroke-opacity:1;stroke-miterlimit:1;" d="M 761.0625 564.429688 L 758.003906 566.226562 L 754.949219 568.023438 L 751.890625 569.820312 L 748.835938 571.617188 L 745.777344 573.417969 L 742.722656 575.214844 L 739.664062 577.011719 L 736.609375 578.808594 L 733.550781 580.605469 L 730.496094 582.402344 L 727.4375 584.199219 L 724.382812 586 L 721.324219 587.796875 L 718.269531 589.59375 L 715.210938 591.390625 L 712.15625 593.1875 L 709.097656 594.984375 L 706.042969 596.78125 L 702.984375 598.582031 L 699.925781 600.378906 L 696.871094 602.175781 L 693.8125 603.972656 L 690.757812 605.769531 L 687.699219 607.566406 L 684.644531 609.363281 L 681.585938 611.164062 L 678.53125 612.960938 L 675.472656 614.757812 L 672.417969 616.554688 L 669.359375 618.351562 L 666.304688 620.148438 L 663.246094 621.945312 L 660.191406 623.746094 L 657.132812 625.542969 L 654.078125 627.339844 L 651.019531 629.136719 L 647.964844 630.933594 L 644.90625 632.730469 L 641.851562 634.527344 L 638.792969 636.328125 L 635.738281 638.125 L 632.679688 639.921875 L 629.625 641.71875 L 623.507812 645.3125 L 620.453125 647.109375 L 617.394531 648.910156 L 614.339844 650.707031 L 611.28125 652.503906 L 608.226562 654.300781 L 605.167969 656.097656 L 602.113281 657.894531 L 599.054688 659.691406 L 596 661.492188 L 592.941406 663.289062 L 589.886719 665.085938 L 586.828125 666.882812 L 583.773438 668.679688 L 580.714844 670.476562 L 577.660156 672.273438 L 574.601562 674.074219 L 571.546875 675.871094 L 568.488281 677.667969 L 565.433594 679.464844 L 562.375 681.261719 L 559.320312 683.058594 L 556.261719 684.855469 L 553.203125 686.65625 L 550.148438 688.453125 L 547.089844 690.25 L 544.035156 692.046875 L 540.976562 693.84375 L 537.921875 695.640625 L 534.863281 697.4375 L 531.808594 699.238281 L 528.75 701.035156 L 525.695312 702.832031 L 522.636719 704.628906 L 519.582031 706.425781 L 516.523438 708.222656 L 513.46875 710.019531 L 510.410156 711.820312 L 507.355469 713.617188 L 504.296875 715.414062 L 501.242188 717.210938 L 498.183594 719.007812 L 495.128906 720.804688 L 492.070312 722.601562 L 489.015625 724.402344 L 485.957031 726.199219 L 482.902344 727.996094 L 476.785156 731.589844 L 473.730469 733.386719 L 471.15625 734.902344 "/>
<path style="fill-rule:nonzero;fill:rgb(97.254902%,46.27451%,42.745098%);fill-opacity:1;stroke-width:1.066978;stroke-linecap:butt;stroke-linejoin:round;stroke:rgb(97.254902%,46.27451%,42.745098%);stroke-opacity:1;stroke-miterlimit:1;" d="M 475.742188 729.347656 L 471.15625 734.902344 L 478.238281 733.59375 Z M 475.742188 729.347656 "/>
<path style="fill:none;stroke-width:1.066978;stroke-linecap:butt;stroke-linejoin:round;stroke:rgb(97.254902%,46.27451%,42.745098%);stroke-opacity:1;stroke-miterlimit:1;" d="M 368.175781 544.8125 L 371.183594 539.289062 L 372.683594 536.527344 L 375.691406 531.003906 L 377.191406 528.242188 L 378.695312 525.480469 L 380.195312 522.71875 L 383.203125 517.195312 L 384.703125 514.433594 L 387.710938 508.910156 L 389.210938 506.144531 L 392.21875 500.621094 L 393.71875 497.859375 L 396.726562 492.335938 L 398.226562 489.574219 L 401.234375 484.050781 L 402.734375 481.289062 L 405.742188 475.765625 L 407.242188 473.003906 L 408.746094 470.242188 L 410.246094 467.480469 L 413.253906 461.957031 L 414.753906 459.195312 L 416.257812 456.429688 L 417.761719 453.667969 L 419.261719 450.90625 L 422.269531 445.382812 L 423.769531 442.621094 L 426.777344 437.097656 L 428.277344 434.335938 L 431.285156 428.8125 L 432.785156 426.050781 L 435.792969 420.527344 L 437.292969 417.765625 L 440.300781 412.242188 L 441.800781 409.480469 L 443.304688 406.714844 L 444.804688 403.953125 L 447.8125 398.429688 L 449.3125 395.667969 L 452.320312 390.144531 L 453.820312 387.382812 L 456.828125 381.859375 L 458.328125 379.097656 L 461.335938 373.574219 L 462.835938 370.8125 L 465.84375 365.289062 L 467.34375 362.527344 L 468.847656 359.765625 L 470.351562 357 L 471.851562 354.238281 L 473.355469 351.476562 L 474.855469 348.714844 L 477.863281 343.191406 L 479.363281 340.429688 L 482.371094 334.90625 L 483.871094 332.144531 L 486.878906 326.621094 L 488.378906 323.859375 L 491.386719 318.335938 L 492.886719 315.574219 L 495.894531 310.050781 L 497.394531 307.285156 L 500.402344 301.761719 L 501.902344 299 L 504.910156 293.476562 L 506.410156 290.714844 L 507.914062 287.953125 L 508.359375 287.132812 "/>
<path style="fill-rule:nonzero;fill:rgb(97.254902%,46.27451%,42.745098%);fill-opacity:1;stroke-width:1.066978;stroke-linecap:butt;stroke-linejoin:round;stroke:rgb(97.254902%,46.27451%,42.745098%);stroke-opacity:1;stroke-miterlimit:1;" d="M 507.289062 294.253906 L 508.359375 287.132812 L 502.960938 291.902344 Z M 507.289062 294.253906 "/>
<path style="fill:none;stroke-width:1.066978;stroke-linecap:butt;stroke-linejoin:round;stroke:rgb(0%,74.901961%,76.862745%);stroke-opacity:1;stroke-miterlimit:1;" d="M 368.175781 544.8125 L 365.90625 544.046875 L 363.636719 543.285156 L 352.289062 539.457031 L 350.019531 538.695312 L 340.941406 535.632812 L 338.671875 534.871094 L 331.863281 532.574219 L 329.589844 531.808594 L 327.320312 531.042969 L 325.050781 530.28125 L 313.703125 526.453125 L 311.433594 525.691406 L 300.085938 521.863281 L 297.816406 521.101562 L 288.738281 518.039062 L 286.46875 517.277344 L 284.199219 516.511719 L 281.925781 515.746094 L 275.117188 513.449219 L 272.847656 512.6875 L 261.5 508.859375 L 259.230469 508.097656 L 247.882812 504.269531 L 245.613281 503.507812 L 234.265625 499.679688 L 231.992188 498.917969 L 222.914062 495.855469 L 220.644531 495.09375 L 209.296875 491.265625 L 207.027344 490.503906 L 195.679688 486.675781 L 193.410156 485.914062 L 186.601562 483.617188 L 184.328125 482.851562 L 182.058594 482.085938 L 179.789062 481.324219 L 170.710938 478.261719 L 168.441406 477.5 L 159.363281 474.4375 L 157.449219 473.792969 "/>
<path style="fill-rule:nonzero;fill:rgb(0%,74.901961%,76.862745%);fill-opacity:1;stroke-width:1.066978;stroke-linecap:butt;stroke-linejoin:round;stroke:rgb(0%,74.901961%,76.862745%);stroke-opacity:1;stroke-miterlimit:1;" d="M 164.644531 473.621094 L 157.449219 473.792969 L 163.074219 478.289062 Z M 164.644531 473.621094 "/>
<path style="fill:none;stroke-width:1.066978;stroke-linecap:butt;stroke-linejoin:round;stroke:rgb(0%,74.901961%,76.862745%);stroke-opacity:1;stroke-miterlimit:1;" d="M 368.175781 544.8125 L 369.089844 546.808594 L 370 548.804688 L 370.914062 550.800781 L 372.734375 554.792969 L 373.648438 556.785156 L 374.558594 558.78125 L 375.472656 560.777344 L 377.292969 564.769531 L 378.207031 566.765625 L 379.117188 568.761719 L 380.03125 570.757812 L 380.941406 572.75 L 381.855469 574.746094 L 383.675781 578.738281 L 384.589844 580.734375 L 385.5 582.730469 L 386.414062 584.726562 L 387.324219 586.71875 L 388.238281 588.714844 L 390.058594 592.707031 L 390.972656 594.703125 L 391.882812 596.699219 L 392.796875 598.695312 L 393.707031 600.6875 L 394.621094 602.683594 L 396.441406 606.675781 L 397.355469 608.671875 L 398.265625 610.667969 L 399.179688 612.664062 L 400.089844 614.660156 L 401.003906 616.652344 L 402.824219 620.644531 L 403.738281 622.640625 L 404.648438 624.636719 L 405.5625 626.632812 L 406.472656 628.628906 L 407.386719 630.621094 L 409.207031 634.613281 L 410.121094 636.609375 L 411.03125 638.605469 L 411.945312 640.601562 L 412.855469 642.597656 L 413.769531 644.59375 L 414.679688 646.585938 L 415.589844 648.582031 L 416.503906 650.578125 L 417.414062 652.574219 L 418.328125 654.570312 L 420.148438 658.5625 L 421.0625 660.554688 L 421.972656 662.550781 L 422.886719 664.546875 L 423.796875 666.542969 L 424.710938 668.539062 L 426.53125 672.53125 L 427.445312 674.527344 L 428.355469 676.519531 L 429.269531 678.515625 L 430.179688 680.511719 L 431.09375 682.507812 L 432.914062 686.5 L 433.828125 688.496094 L 434.738281 690.488281 L 435.652344 692.484375 L 436.5625 694.480469 L 437.476562 696.476562 L 439.296875 700.46875 L 440.210938 702.464844 L 441.121094 704.457031 L 442.035156 706.453125 L 442.945312 708.449219 L 443.859375 710.445312 L 445.679688 714.4375 L 446.59375 716.433594 L 447.503906 718.429688 L 448.417969 720.421875 L 449.328125 722.417969 L 450.242188 724.414062 L 452.0625 728.40625 L 452.320312 728.964844 "/>
<path style="fill-rule:nonzero;fill:rgb(0%,74.901961%,76.862745%);fill-opacity:1;stroke-width:1.066978;stroke-linecap:butt;stroke-linejoin:round;stroke:rgb(0%,74.901961%,76.862745%);stroke-opacity:1;stroke-miterlimit:1;" d="M 447.265625 723.832031 L 452.320312 728.964844 L 451.746094 721.785156 Z M 447.265625 723.832031 "/>
<path style="fill:none;stroke-width:1.066978;stroke-linecap:butt;stroke-linejoin:round;stroke:rgb(97.254902%,46.27451%,42.745098%);stroke-opacity:1;stroke-miterlimit:1;" d="M 44.109375 44.128906 L 46.007812 46.371094 L 47.902344 48.617188 L 51.691406 53.101562 L 53.585938 55.347656 L 55.484375 57.589844 L 59.273438 62.074219 L 61.167969 64.320312 L 63.0625 66.5625 L 64.960938 68.804688 L 66.855469 71.050781 L 70.644531 75.535156 L 72.539062 77.78125 L 74.4375 80.023438 L 78.226562 84.507812 L 80.121094 86.753906 L 82.015625 88.996094 L 83.914062 91.238281 L 85.808594 93.484375 L 91.492188 100.210938 L 93.386719 102.457031 L 95.285156 104.699219 L 97.179688 106.941406 L 99.074219 109.1875 L 102.863281 113.671875 L 104.761719 115.914062 L 106.65625 118.160156 L 110.445312 122.644531 L 112.339844 124.890625 L 114.238281 127.132812 L 116.132812 129.375 L 118.027344 131.621094 L 121.816406 136.105469 L 123.714844 138.347656 L 125.609375 140.59375 L 129.398438 145.078125 L 131.292969 147.324219 L 133.191406 149.566406 L 136.980469 154.050781 L 138.875 156.296875 L 140.769531 158.539062 L 142.667969 160.78125 L 144.5625 163.027344 L 148.351562 167.511719 L 150.246094 169.757812 L 152.140625 172 L 154.039062 174.242188 L 155.933594 176.484375 L 157.828125 178.730469 L 161.617188 183.214844 L 163.515625 185.460938 L 169.199219 192.1875 L 171.09375 194.433594 L 172.992188 196.675781 L 174.886719 198.917969 L 176.78125 201.164062 L 180.570312 205.648438 L 182.46875 207.890625 L 184.363281 210.136719 L 188.152344 214.621094 L 190.046875 216.867188 L 191.945312 219.109375 L 193.839844 221.351562 L 195.734375 223.597656 L 199.523438 228.082031 L 201.421875 230.324219 L 203.316406 232.570312 L 207.105469 237.054688 L 209 239.300781 L 210.894531 241.542969 L 212.792969 243.785156 L 214.6875 246.027344 L 216.582031 248.273438 L 220.371094 252.757812 L 222.230469 254.957031 "/>
<path style="fill-rule:nonzero;fill:rgb(97.254902%,46.27451%,42.745098%);fill-opacity:1;stroke-width:1.066978;stroke-linecap:butt;stroke-linejoin:round;stroke:rgb(97.254902%,46.27451%,42.745098%);stroke-opacity:1;stroke-miterlimit:1;" d="M 215.980469 251.375 L 222.230469 254.957031 L 219.742188 248.199219 Z M 215.980469 251.375 "/>
<path style="fill:none;stroke-width:1.066978;stroke-linecap:butt;stroke-linejoin:round;stroke:rgb(97.254902%,46.27451%,42.745098%);stroke-opacity:1;stroke-miterlimit:1;" d="M 368.175781 544.8125 L 376.113281 545.210938 L 380.082031 545.40625 L 391.988281 546.003906 L 395.957031 546.199219 L 403.894531 546.597656 L 407.863281 546.792969 L 419.769531 547.390625 L 423.734375 547.585938 L 435.640625 548.183594 L 439.609375 548.378906 L 447.546875 548.777344 L 451.515625 548.972656 L 463.421875 549.570312 L 467.390625 549.765625 L 479.296875 550.363281 L 483.265625 550.558594 L 491.203125 550.957031 L 495.171875 551.152344 L 499.136719 551.351562 L 507.074219 551.75 L 511.042969 551.945312 L 518.980469 552.34375 L 522.949219 552.539062 L 534.855469 553.136719 L 538.824219 553.332031 L 550.730469 553.929688 L 554.699219 554.125 L 562.636719 554.523438 L 566.605469 554.71875 L 570.570312 554.917969 L 578.507812 555.316406 L 582.476562 555.511719 L 590.414062 555.910156 L 594.382812 556.105469 L 606.289062 556.703125 L 610.257812 556.898438 L 622.164062 557.496094 L 626.132812 557.691406 L 634.070312 558.089844 L 638.039062 558.285156 L 642.007812 558.484375 L 645.972656 558.683594 L 649.941406 558.882812 L 653.910156 559.078125 L 665.816406 559.675781 L 669.785156 559.871094 L 677.722656 560.269531 L 681.691406 560.464844 L 693.597656 561.0625 L 697.566406 561.257812 L 705.503906 561.65625 L 709.472656 561.851562 L 717.410156 562.25 L 721.375 562.449219 L 725.34375 562.644531 L 737.25 563.242188 L 741.21875 563.4375 L 745.1875 563.636719 L 746.335938 563.695312 "/>
<path style="fill-rule:nonzero;fill:rgb(97.254902%,46.27451%,42.745098%);fill-opacity:1;stroke-width:1.066978;stroke-linecap:butt;stroke-linejoin:round;stroke:rgb(97.254902%,46.27451%,42.745098%);stroke-opacity:1;stroke-miterlimit:1;" d="M 739.457031 565.816406 L 746.335938 563.695312 L 739.703125 560.898438 Z M 739.457031 565.816406 "/>
<path style="fill:none;stroke-width:1.066978;stroke-linecap:butt;stroke-linejoin:round;stroke:rgb(97.254902%,46.27451%,42.745098%);stroke-opacity:1;stroke-miterlimit:1;" d="M 231.746094 266.21875 L 234.625 266.269531 L 237.503906 266.324219 L 240.386719 266.375 L 243.265625 266.425781 L 246.148438 266.480469 L 249.027344 266.53125 L 251.910156 266.585938 L 254.789062 266.636719 L 257.671875 266.6875 L 260.550781 266.742188 L 263.433594 266.792969 L 266.3125 266.84375 L 269.191406 266.898438 L 272.074219 266.949219 L 274.953125 267 L 277.835938 267.054688 L 280.714844 267.105469 L 283.597656 267.15625 L 286.476562 267.210938 L 289.359375 267.261719 L 292.238281 267.3125 L 295.117188 267.367188 L 298 267.417969 L 300.878906 267.46875 L 303.761719 267.523438 L 306.640625 267.574219 L 309.523438 267.628906 L 312.402344 267.679688 L 315.285156 267.730469 L 318.164062 267.785156 L 321.042969 267.835938 L 323.925781 267.886719 L 326.804688 267.941406 L 329.6875 267.992188 L 332.566406 268.042969 L 335.449219 268.097656 L 338.328125 268.148438 L 341.210938 268.199219 L 344.089844 268.253906 L 346.96875 268.304688 L 349.851562 268.355469 L 352.730469 268.410156 L 355.613281 268.460938 L 358.492188 268.511719 L 361.375 268.566406 L 364.253906 268.617188 L 367.136719 268.671875 L 372.894531 268.773438 L 375.777344 268.828125 L 378.65625 268.878906 L 381.539062 268.929688 L 384.417969 268.984375 L 387.300781 269.035156 L 390.179688 269.085938 L 393.0625 269.140625 L 398.820312 269.242188 L 401.703125 269.296875 L 404.582031 269.347656 L 407.464844 269.398438 L 410.34375 269.453125 L 413.226562 269.503906 L 416.105469 269.554688 L 418.988281 269.609375 L 421.867188 269.660156 L 424.746094 269.714844 L 427.628906 269.765625 L 430.507812 269.816406 L 433.390625 269.871094 L 436.269531 269.921875 L 439.152344 269.972656 L 442.03125 270.027344 L 444.914062 270.078125 L 447.792969 270.128906 L 450.671875 270.183594 L 453.554688 270.234375 L 456.433594 270.285156 L 459.316406 270.339844 L 462.195312 270.390625 L 465.078125 270.441406 L 467.957031 270.496094 L 470.839844 270.546875 L 473.71875 270.597656 L 476.597656 270.652344 L 479.480469 270.703125 L 482.359375 270.757812 L 485.242188 270.808594 L 488.121094 270.859375 L 491.003906 270.914062 L 493.882812 270.964844 L 496.765625 271.015625 L 499 271.058594 "/>
<path style="fill-rule:nonzero;fill:rgb(97.254902%,46.27451%,42.745098%);fill-opacity:1;stroke-width:1.066978;stroke-linecap:butt;stroke-linejoin:round;stroke:rgb(97.254902%,46.27451%,42.745098%);stroke-opacity:1;stroke-miterlimit:1;" d="M 492.191406 273.398438 L 499 271.058594 L 492.277344 268.472656 Z M 492.191406 273.398438 "/>
<path style="fill:none;stroke-width:1.066978;stroke-linecap:butt;stroke-linejoin:round;stroke:rgb(97.254902%,46.27451%,42.745098%);stroke-opacity:1;stroke-miterlimit:1;" d="M 231.746094 266.21875 L 233.121094 269.03125 L 234.5 271.847656 L 235.878906 274.660156 L 237.257812 277.476562 L 238.636719 280.289062 L 240.011719 283.101562 L 241.390625 285.917969 L 242.769531 288.730469 L 244.148438 291.546875 L 245.527344 294.359375 L 246.902344 297.175781 L 249.660156 302.800781 L 251.039062 305.617188 L 252.417969 308.429688 L 253.792969 311.246094 L 256.550781 316.871094 L 257.929688 319.6875 L 259.304688 322.5 L 260.683594 325.316406 L 263.441406 330.941406 L 264.820312 333.757812 L 266.195312 336.570312 L 267.574219 339.386719 L 270.332031 345.011719 L 271.710938 347.828125 L 273.085938 350.640625 L 274.464844 353.457031 L 277.222656 359.082031 L 278.601562 361.898438 L 279.976562 364.710938 L 281.355469 367.527344 L 284.113281 373.152344 L 285.492188 375.96875 L 286.867188 378.78125 L 288.246094 381.597656 L 289.625 384.410156 L 291.003906 387.226562 L 292.382812 390.039062 L 293.757812 392.851562 L 295.136719 395.667969 L 296.515625 398.480469 L 297.894531 401.296875 L 299.273438 404.109375 L 300.648438 406.921875 L 302.027344 409.738281 L 303.40625 412.550781 L 304.785156 415.367188 L 306.160156 418.179688 L 307.539062 420.992188 L 308.917969 423.808594 L 310.296875 426.621094 L 311.675781 429.4375 L 313.050781 432.25 L 314.429688 435.0625 L 315.808594 437.878906 L 317.1875 440.691406 L 318.566406 443.507812 L 319.941406 446.320312 L 321.320312 449.132812 L 322.699219 451.949219 L 324.078125 454.761719 L 325.457031 457.578125 L 326.832031 460.390625 L 328.210938 463.203125 L 329.589844 466.019531 L 330.96875 468.832031 L 332.347656 471.648438 L 333.722656 474.460938 L 335.101562 477.277344 L 337.859375 482.902344 L 339.238281 485.71875 L 340.613281 488.53125 L 341.992188 491.347656 L 344.75 496.972656 L 346.128906 499.789062 L 347.503906 502.601562 L 348.882812 505.417969 L 351.640625 511.042969 L 353.019531 513.859375 L 354.394531 516.671875 L 355.773438 519.488281 L 358.53125 525.113281 L 359.90625 527.929688 L 361.285156 530.742188 L 362.394531 533.003906 "/>
<path style="fill-rule:nonzero;fill:rgb(97.254902%,46.27451%,42.745098%);fill-opacity:1;stroke-width:1.066978;stroke-linecap:butt;stroke-linejoin:round;stroke:rgb(97.254902%,46.27451%,42.745098%);stroke-opacity:1;stroke-miterlimit:1;" d="M 357.207031 528.007812 L 362.394531 533.003906 L 361.628906 525.84375 Z M 357.207031 528.007812 "/>
<path style="fill:none;stroke-width:1.066978;stroke-linecap:butt;stroke-linejoin:round;stroke:rgb(97.254902%,46.27451%,42.745098%);stroke-opacity:1;stroke-miterlimit:1;" d="M 143.476562 469.082031 L 144.367188 467.035156 L 145.257812 464.984375 L 146.148438 462.9375 L 147.042969 460.886719 L 147.933594 458.839844 L 149.714844 454.738281 L 150.609375 452.691406 L 151.5 450.640625 L 152.390625 448.59375 L 153.28125 446.542969 L 154.175781 444.492188 L 155.066406 442.445312 L 155.957031 440.394531 L 156.847656 438.347656 L 157.742188 436.296875 L 158.632812 434.25 L 160.414062 430.148438 L 161.308594 428.101562 L 162.199219 426.050781 L 163.089844 424.003906 L 163.980469 421.953125 L 164.875 419.90625 L 166.65625 415.804688 L 167.546875 413.757812 L 168.441406 411.707031 L 169.332031 409.660156 L 171.113281 405.558594 L 172.007812 403.511719 L 172.898438 401.460938 L 173.789062 399.414062 L 174.679688 397.363281 L 175.574219 395.316406 L 177.355469 391.214844 L 178.246094 389.167969 L 179.140625 387.117188 L 180.03125 385.070312 L 180.921875 383.019531 L 181.8125 380.972656 L 182.707031 378.921875 L 183.597656 376.871094 L 184.488281 374.824219 L 185.378906 372.773438 L 186.273438 370.726562 L 188.054688 366.625 L 188.949219 364.578125 L 189.839844 362.527344 L 190.730469 360.480469 L 191.621094 358.429688 L 192.515625 356.382812 L 194.296875 352.28125 L 195.1875 350.234375 L 196.082031 348.183594 L 196.972656 346.136719 L 198.753906 342.035156 L 199.648438 339.988281 L 200.539062 337.9375 L 201.429688 335.890625 L 202.320312 333.839844 L 203.214844 331.792969 L 204.996094 327.691406 L 205.886719 325.644531 L 206.78125 323.59375 L 207.671875 321.546875 L 208.5625 319.496094 L 209.453125 317.449219 L 210.347656 315.398438 L 211.238281 313.347656 L 212.128906 311.300781 L 213.019531 309.25 L 213.914062 307.203125 L 215.695312 303.101562 L 216.585938 301.054688 L 217.480469 299.003906 L 218.371094 296.957031 L 219.261719 294.90625 L 220.152344 292.859375 L 221.046875 290.808594 L 221.9375 288.757812 L 222.828125 286.710938 L 223.71875 284.660156 L 224.613281 282.613281 L 225.503906 280.5625 L 225.863281 279.738281 "/>
<path style="fill-rule:nonzero;fill:rgb(97.254902%,46.27451%,42.745098%);fill-opacity:1;stroke-width:1.066978;stroke-linecap:butt;stroke-linejoin:round;stroke:rgb(97.254902%,46.27451%,42.745098%);stroke-opacity:1;stroke-miterlimit:1;" d="M 225.421875 286.925781 L 225.863281 279.738281 L 220.902344 284.960938 Z M 225.421875 286.925781 "/>
<path style="fill:none;stroke-width:1.066978;stroke-linecap:butt;stroke-linejoin:round;stroke:rgb(97.254902%,46.27451%,42.745098%);stroke-opacity:1;stroke-miterlimit:1;" d="M 143.476562 469.082031 L 147.246094 467.085938 L 154.792969 463.09375 L 158.5625 461.097656 L 162.335938 459.097656 L 169.882812 455.105469 L 173.652344 453.109375 L 177.425781 451.109375 L 181.199219 449.113281 L 184.96875 447.117188 L 188.742188 445.121094 L 192.515625 443.121094 L 196.285156 441.125 L 207.605469 435.136719 L 211.375 433.136719 L 218.921875 429.144531 L 222.691406 427.148438 L 226.464844 425.148438 L 230.238281 423.152344 L 234.007812 421.15625 L 237.78125 419.160156 L 241.554688 417.160156 L 245.324219 415.164062 L 256.644531 409.175781 L 260.414062 407.175781 L 267.960938 403.183594 L 271.730469 401.1875 L 275.503906 399.1875 L 279.277344 397.191406 L 283.046875 395.195312 L 286.820312 393.199219 L 290.59375 391.199219 L 294.367188 389.203125 L 298.136719 387.207031 L 305.683594 383.214844 L 309.453125 381.214844 L 317 377.222656 L 320.769531 375.226562 L 324.542969 373.226562 L 332.089844 369.234375 L 335.859375 367.238281 L 339.632812 365.242188 L 343.40625 363.242188 L 347.175781 361.246094 L 354.722656 357.253906 L 358.492188 355.253906 L 369.8125 349.265625 L 373.582031 347.265625 L 381.128906 343.273438 L 384.898438 341.277344 L 388.671875 339.28125 L 392.445312 337.28125 L 396.214844 335.285156 L 403.761719 331.292969 L 407.53125 329.292969 L 418.851562 323.304688 L 422.621094 321.304688 L 430.167969 317.3125 L 433.9375 315.316406 L 437.710938 313.320312 L 441.484375 311.320312 L 445.253906 309.324219 L 452.800781 305.332031 L 456.574219 303.332031 L 460.34375 301.335938 L 467.890625 297.34375 L 471.660156 295.34375 L 479.207031 291.351562 L 482.976562 289.355469 L 486.75 287.359375 L 490.523438 285.359375 L 494.296875 283.363281 L 498.066406 281.367188 L 501.078125 279.773438 "/>
<path style="fill-rule:nonzero;fill:rgb(97.254902%,46.27451%,42.745098%);fill-opacity:1;stroke-width:1.066978;stroke-linecap:butt;stroke-linejoin:round;stroke:rgb(97.254902%,46.27451%,42.745098%);stroke-opacity:1;stroke-miterlimit:1;" d="M 496.253906 285.113281 L 501.078125 279.773438 L 493.949219 280.761719 Z M 496.253906 285.113281 "/>
<path style="fill:none;stroke-width:1.066978;stroke-linecap:butt;stroke-linejoin:round;stroke:rgb(0%,74.901961%,76.862745%);stroke-opacity:1;stroke-miterlimit:1;" d="M 458.445312 742.375 L 461.511719 743.128906 L 464.578125 743.886719 L 470.710938 745.394531 L 473.773438 746.148438 L 476.839844 746.90625 L 482.972656 748.414062 L 486.039062 749.171875 L 489.105469 749.925781 L 492.167969 750.679688 L 495.234375 751.4375 L 501.367188 752.945312 L 504.433594 753.703125 L 507.496094 754.457031 L 513.628906 755.964844 L 516.695312 756.722656 L 522.828125 758.230469 L 525.890625 758.988281 L 532.023438 760.496094 L 535.089844 761.253906 L 538.15625 762.007812 L 541.21875 762.761719 L 544.285156 763.519531 L 553.484375 765.78125 L 556.550781 766.539062 L 559.613281 767.292969 L 562.679688 768.046875 L 565.746094 768.804688 L 571.878906 770.3125 L 574.945312 771.070312 L 578.007812 771.824219 L 581.074219 772.578125 L 584.140625 773.335938 L 590.273438 774.84375 L 593.335938 775.601562 L 602.535156 777.863281 L 605.601562 778.621094 L 608.667969 779.375 L 611.730469 780.128906 L 614.796875 780.886719 L 620.929688 782.394531 L 623.996094 783.152344 L 627.058594 783.90625 L 630.125 784.660156 L 633.191406 785.417969 L 642.390625 787.679688 L 645.453125 788.4375 L 651.585938 789.945312 L 654.652344 790.703125 L 657.71875 791.457031 L 660.78125 792.210938 L 663.847656 792.96875 L 669.980469 794.476562 L 673.046875 795.234375 L 676.113281 795.988281 L 679.175781 796.742188 L 682.242188 797.496094 L 685.308594 798.253906 L 691.441406 799.761719 L 694.503906 800.519531 L 700.636719 802.027344 L 703.703125 802.785156 L 709.835938 804.292969 L 712.898438 805.050781 L 722.097656 807.3125 L 725.164062 808.070312 L 728.230469 808.824219 L 731.292969 809.578125 L 734.359375 810.335938 L 740.492188 811.84375 L 743.558594 812.601562 L 746.621094 813.355469 L 749.6875 814.109375 L 750.730469 814.367188 "/>
<path style="fill-rule:nonzero;fill:rgb(0%,74.901961%,76.862745%);fill-opacity:1;stroke-width:1.066978;stroke-linecap:butt;stroke-linejoin:round;stroke:rgb(0%,74.901961%,76.862745%);stroke-opacity:1;stroke-miterlimit:1;" d="M 743.570312 815.140625 L 750.730469 814.367188 L 744.75 810.359375 Z M 743.570312 815.140625 "/>
<path style="fill:none;stroke-width:1.066978;stroke-linecap:butt;stroke-linejoin:round;stroke:rgb(97.254902%,46.27451%,42.745098%);stroke-opacity:1;stroke-miterlimit:1;" d="M 458.445312 742.375 L 455.265625 739.613281 L 452.082031 736.855469 L 448.902344 734.09375 L 445.71875 731.332031 L 442.539062 728.570312 L 439.359375 725.8125 L 436.175781 723.050781 L 432.996094 720.289062 L 429.8125 717.53125 L 426.632812 714.769531 L 423.449219 712.007812 L 420.269531 709.25 L 417.085938 706.488281 L 413.90625 703.726562 L 410.722656 700.96875 L 407.542969 698.207031 L 404.359375 695.445312 L 401.179688 692.683594 L 397.996094 689.925781 L 394.816406 687.164062 L 391.632812 684.402344 L 388.453125 681.644531 L 385.269531 678.882812 L 382.089844 676.121094 L 378.910156 673.363281 L 375.726562 670.601562 L 372.546875 667.839844 L 369.363281 665.082031 L 366.183594 662.320312 L 363 659.558594 L 359.820312 656.796875 L 356.636719 654.039062 L 353.457031 651.277344 L 350.273438 648.515625 L 347.09375 645.757812 L 343.910156 642.996094 L 340.730469 640.234375 L 337.546875 637.476562 L 334.367188 634.714844 L 331.183594 631.953125 L 328.003906 629.195312 L 324.824219 626.433594 L 321.640625 623.671875 L 318.460938 620.910156 L 315.277344 618.152344 L 312.097656 615.390625 L 308.914062 612.628906 L 305.734375 609.871094 L 302.550781 607.109375 L 299.371094 604.347656 L 296.1875 601.589844 L 293.007812 598.828125 L 289.824219 596.066406 L 286.644531 593.308594 L 283.460938 590.546875 L 280.28125 587.785156 L 277.097656 585.023438 L 273.917969 582.265625 L 270.738281 579.503906 L 267.554688 576.742188 L 264.375 573.984375 L 261.191406 571.222656 L 258.011719 568.460938 L 254.828125 565.703125 L 251.648438 562.941406 L 248.464844 560.179688 L 245.285156 557.421875 L 242.101562 554.660156 L 238.921875 551.898438 L 235.738281 549.136719 L 232.558594 546.378906 L 229.375 543.617188 L 226.195312 540.855469 L 223.011719 538.097656 L 216.652344 532.574219 L 213.46875 529.816406 L 210.289062 527.054688 L 207.105469 524.292969 L 203.925781 521.535156 L 200.742188 518.773438 L 197.5625 516.011719 L 194.378906 513.25 L 191.199219 510.492188 L 188.015625 507.730469 L 184.835938 504.96875 L 181.652344 502.210938 L 178.472656 499.449219 L 175.289062 496.6875 L 172.109375 493.929688 L 168.925781 491.167969 L 165.746094 488.40625 L 162.5625 485.648438 L 156.203125 480.125 L 154.613281 478.746094 "/>
<path style="fill-rule:nonzero;fill:rgb(97.254902%,46.27451%,42.745098%);fill-opacity:1;stroke-width:1.066978;stroke-linecap:butt;stroke-linejoin:round;stroke:rgb(97.254902%,46.27451%,42.745098%);stroke-opacity:1;stroke-miterlimit:1;" d="M 161.335938 481.320312 L 154.613281 478.746094 L 158.109375 485.039062 Z M 161.335938 481.320312 "/>
<path style="fill:none;stroke-width:1.066978;stroke-linecap:butt;stroke-linejoin:round;stroke:rgb(97.254902%,46.27451%,42.745098%);stroke-opacity:1;stroke-miterlimit:1;" d="M 548.835938 454.996094 L 539.226562 449.277344 L 536.023438 447.367188 L 520.007812 437.835938 L 516.804688 435.925781 L 510.398438 432.113281 L 507.199219 430.207031 L 497.589844 424.488281 L 494.386719 422.578125 L 475.167969 411.140625 L 471.964844 409.230469 L 455.949219 399.699219 L 452.746094 397.789062 L 443.136719 392.070312 L 439.9375 390.164062 L 433.53125 386.351562 L 430.328125 384.441406 L 411.109375 373.003906 L 407.90625 371.09375 L 391.890625 361.5625 L 388.6875 359.652344 L 375.875 352.027344 L 372.675781 350.121094 L 369.472656 348.214844 L 366.269531 346.304688 L 350.253906 336.773438 L 347.050781 334.863281 L 327.832031 323.425781 L 324.628906 321.515625 L 308.613281 311.984375 L 305.414062 310.078125 L 302.210938 308.167969 L 286.195312 298.636719 L 282.992188 296.726562 L 263.773438 285.289062 L 260.570312 283.378906 L 244.554688 273.847656 L 244.414062 273.761719 "/>
<path style="fill-rule:nonzero;fill:rgb(97.254902%,46.27451%,42.745098%);fill-opacity:1;stroke-width:1.066978;stroke-linecap:butt;stroke-linejoin:round;stroke:rgb(97.254902%,46.27451%,42.745098%);stroke-opacity:1;stroke-miterlimit:1;" d="M 251.488281 275.105469 L 244.414062 273.761719 L 248.96875 279.339844 Z M 251.488281 275.105469 "/>
<g style="fill:rgb(0%,0%,0%);fill-opacity:1;">
  <use xlink:href="#glyph0-1" x="751.003906" y="693.051758"/>
  <use xlink:href="#glyph0-2" x="757.003906" y="693.051758"/>
  <use xlink:href="#glyph0-3" x="760.003906" y="693.051758"/>
  <use xlink:href="#glyph0-3" x="766.003906" y="693.051758"/>
</g>
<g style="fill:rgb(0%,0%,0%);fill-opacity:1;">
  <use xlink:href="#glyph0-1" x="522.222656" y="365.80957"/>
  <use xlink:href="#glyph0-2" x="528.222656" y="365.80957"/>
  <use xlink:href="#glyph0-3" x="531.222656" y="365.80957"/>
  <use xlink:href="#glyph0-3" x="537.222656" y="365.80957"/>
</g>
<g style="fill:rgb(0%,0%,0%);fill-opacity:1;">
  <use xlink:href="#glyph0-1" x="333.609375" y="465.657227"/>
  <use xlink:href="#glyph0-2" x="339.609375" y="465.657227"/>
  <use xlink:href="#glyph0-4" x="342.609375" y="465.657227"/>
  <use xlink:href="#glyph0-3" x="348.609375" y="465.657227"/>
</g>
<g style="fill:rgb(0%,0%,0%);fill-opacity:1;">
  <use xlink:href="#glyph0-1" x="495.683594" y="603.68457"/>
  <use xlink:href="#glyph0-2" x="501.683594" y="603.68457"/>
  <use xlink:href="#glyph0-4" x="504.683594" y="603.68457"/>
</g>
<g style="fill:rgb(0%,0%,0%);fill-opacity:1;">
  <use xlink:href="#glyph0-1" x="645.519531" y="513.813477"/>
  <use xlink:href="#glyph0-2" x="651.519531" y="513.813477"/>
  <use xlink:href="#glyph0-3" x="654.519531" y="513.813477"/>
  <use xlink:href="#glyph0-5" x="660.519531" y="513.813477"/>
</g>
<g style="fill:rgb(0%,0%,0%);fill-opacity:1;">
  <use xlink:href="#glyph0-1" x="447.09375" y="503.907227"/>
  <use xlink:href="#glyph0-2" x="453.09375" y="503.907227"/>
  <use xlink:href="#glyph0-6" x="456.09375" y="503.907227"/>
  <use xlink:href="#glyph0-7" x="462.09375" y="503.907227"/>
</g>
<g style="fill:rgb(0%,0%,0%);fill-opacity:1;">
  <use xlink:href="#glyph0-1" x="630.261719" y="419.973633"/>
  <use xlink:href="#glyph0-2" x="636.261719" y="419.973633"/>
  <use xlink:href="#glyph0-6" x="639.261719" y="419.973633"/>
</g>
<g style="fill:rgb(0%,0%,0%);fill-opacity:1;">
  <use xlink:href="#glyph0-1" x="597.726562" y="657.848633"/>
  <use xlink:href="#glyph0-2" x="603.726562" y="657.848633"/>
  <use xlink:href="#glyph0-4" x="606.726562" y="657.848633"/>
  <use xlink:href="#glyph0-7" x="612.726562" y="657.848633"/>
</g>
<g style="fill:rgb(0%,0%,0%);fill-opacity:1;">
  <use xlink:href="#glyph0-1" x="432.804688" y="410.262695"/>
  <use xlink:href="#glyph0-2" x="438.804688" y="410.262695"/>
  <use xlink:href="#glyph0-3" x="441.804688" y="410.262695"/>
  <use xlink:href="#glyph0-3" x="447.804688" y="410.262695"/>
</g>
<g style="fill:rgb(0%,0%,0%);fill-opacity:1;">
  <use xlink:href="#glyph0-1" x="244.191406" y="510.114258"/>
  <use xlink:href="#glyph0-2" x="250.191406" y="510.114258"/>
  <use xlink:href="#glyph0-6" x="253.191406" y="510.114258"/>
  <use xlink:href="#glyph0-7" x="259.191406" y="510.114258"/>
</g>
<g style="fill:rgb(0%,0%,0%);fill-opacity:1;">
  <use xlink:href="#glyph0-1" x="403.269531" y="648.141602"/>
  <use xlink:href="#glyph0-2" x="409.269531" y="648.141602"/>
  <use xlink:href="#glyph0-3" x="412.269531" y="648.141602"/>
  <use xlink:href="#glyph0-5" x="418.269531" y="648.141602"/>
</g>
<g style="fill:rgb(0%,0%,0%);fill-opacity:1;">
  <use xlink:href="#glyph0-1" x="128.375" y="159.844727"/>
  <use xlink:href="#glyph0-2" x="134.375" y="159.844727"/>
  <use xlink:href="#glyph0-3" x="137.375" y="159.844727"/>
  <use xlink:href="#glyph0-8" x="143.375" y="159.844727"/>
</g>
<g style="fill:rgb(0%,0%,0%);fill-opacity:1;">
  <use xlink:href="#glyph0-1" x="556.105469" y="558.266602"/>
  <use xlink:href="#glyph0-2" x="562.105469" y="558.266602"/>
  <use xlink:href="#glyph0-6" x="565.105469" y="558.266602"/>
  <use xlink:href="#glyph0-7" x="571.105469" y="558.266602"/>
</g>
<g style="fill:rgb(0%,0%,0%);fill-opacity:1;">
  <use xlink:href="#glyph0-1" x="365.277344" y="272.375977"/>
  <use xlink:href="#glyph0-2" x="371.277344" y="272.375977"/>
  <use xlink:href="#glyph0-3" x="374.277344" y="272.375977"/>
  <use xlink:href="#glyph0-8" x="380.277344" y="272.375977"/>
</g>
<g style="fill:rgb(0%,0%,0%);fill-opacity:1;">
  <use xlink:href="#glyph0-1" x="290.148438" y="410.469727"/>
  <use xlink:href="#glyph0-2" x="296.148438" y="410.469727"/>
  <use xlink:href="#glyph0-6" x="299.148438" y="410.469727"/>
  <use xlink:href="#glyph0-9" x="305.148438" y="410.469727"/>
</g>
<g style="fill:rgb(0%,0%,0%);fill-opacity:1;">
  <use xlink:href="#glyph0-1" x="177.554688" y="370.172852"/>
  <use xlink:href="#glyph0-2" x="183.554688" y="370.172852"/>
  <use xlink:href="#glyph0-10" x="186.554688" y="370.172852"/>
  <use xlink:href="#glyph0-3" x="192.554688" y="370.172852"/>
</g>
<g style="fill:rgb(0%,0%,0%);fill-opacity:1;">
  <use xlink:href="#glyph0-1" x="321.589844" y="372.782227"/>
  <use xlink:href="#glyph0-2" x="327.589844" y="372.782227"/>
  <use xlink:href="#glyph0-3" x="330.589844" y="372.782227"/>
  <use xlink:href="#glyph0-7" x="336.589844" y="372.782227"/>
</g>
<g style="fill:rgb(0%,0%,0%);fill-opacity:1;">
  <use xlink:href="#glyph0-1" x="601.230469" y="783.676758"/>
  <use xlink:href="#glyph0-2" x="607.230469" y="783.676758"/>
  <use xlink:href="#glyph0-3" x="610.230469" y="783.676758"/>
  <use xlink:href="#glyph0-4" x="616.230469" y="783.676758"/>
</g>
<g style="fill:rgb(0%,0%,0%);fill-opacity:1;">
  <use xlink:href="#glyph0-1" x="291.871094" y="607.895508"/>
  <use xlink:href="#glyph0-2" x="297.871094" y="607.895508"/>
  <use xlink:href="#glyph0-4" x="300.871094" y="607.895508"/>
</g>
<g style="fill:rgb(0%,0%,0%);fill-opacity:1;">
  <use xlink:href="#glyph0-1" x="378.1875" y="363.200195"/>
  <use xlink:href="#glyph0-2" x="384.1875" y="363.200195"/>
  <use xlink:href="#glyph0-10" x="387.1875" y="363.200195"/>
  <use xlink:href="#glyph0-9" x="393.1875" y="363.200195"/>
</g>
<path style="fill-rule:nonzero;fill:rgb(3.137255%,31.764706%,61.176471%);fill-opacity:1;stroke-width:0.708661;stroke-linecap:round;stroke-linejoin:round;stroke:rgb(3.137255%,31.764706%,61.176471%);stroke-opacity:1;stroke-miterlimit:10;" d="M 772.976562 817.128906 C 772.976562 823.21875 768.039062 828.15625 761.953125 828.15625 C 755.863281 828.15625 750.925781 823.21875 750.925781 817.128906 C 750.925781 811.042969 755.863281 806.105469 761.953125 806.105469 C 768.039062 806.105469 772.976562 811.042969 772.976562 817.128906 "/>
<path style="fill-rule:nonzero;fill:rgb(87.058824%,92.156863%,96.862745%);fill-opacity:1;stroke-width:0.708661;stroke-linecap:round;stroke-linejoin:round;stroke:rgb(87.058824%,92.156863%,96.862745%);stroke-opacity:1;stroke-miterlimit:10;" d="M 772.085938 564.429688 C 772.085938 570.519531 767.152344 575.453125 761.0625 575.453125 C 754.972656 575.453125 750.039062 570.519531 750.039062 564.429688 C 750.039062 558.339844 754.972656 553.40625 761.0625 553.40625 C 767.152344 553.40625 772.085938 558.339844 772.085938 564.429688 "/>
<path style="fill-rule:nonzero;fill:rgb(96.862745%,96.862745%,96.862745%);fill-opacity:1;stroke-width:0.708661;stroke-linecap:round;stroke-linejoin:round;stroke:rgb(96.862745%,96.862745%,96.862745%);stroke-opacity:1;stroke-miterlimit:10;" d="M 55.136719 44.128906 C 55.136719 50.21875 50.199219 55.152344 44.109375 55.152344 C 38.023438 55.152344 33.085938 50.21875 33.085938 44.128906 C 33.085938 38.042969 38.023438 33.105469 44.109375 33.105469 C 50.199219 33.105469 55.136719 38.042969 55.136719 44.128906 "/>
<path style="fill-rule:nonzero;fill:rgb(41.960784%,68.235294%,83.921569%);fill-opacity:1;stroke-width:0.708661;stroke-linecap:round;stroke-linejoin:round;stroke:rgb(41.960784%,68.235294%,83.921569%);stroke-opacity:1;stroke-miterlimit:10;" d="M 242.769531 266.21875 C 242.769531 272.308594 237.832031 277.242188 231.746094 277.242188 C 225.65625 277.242188 220.71875 272.308594 220.71875 266.21875 C 220.71875 260.128906 225.65625 255.195312 231.746094 255.195312 C 237.832031 255.195312 242.769531 260.128906 242.769531 266.21875 "/>
<path style="fill-rule:nonzero;fill:rgb(87.058824%,92.156863%,96.862745%);fill-opacity:1;stroke-width:0.708661;stroke-linecap:round;stroke-linejoin:round;stroke:rgb(87.058824%,92.156863%,96.862745%);stroke-opacity:1;stroke-miterlimit:10;" d="M 527.953125 271.382812 C 527.953125 277.46875 523.015625 282.40625 516.929688 282.40625 C 510.839844 282.40625 505.90625 277.46875 505.90625 271.382812 C 505.90625 265.292969 510.839844 260.359375 516.929688 260.359375 C 523.015625 260.359375 527.953125 265.292969 527.953125 271.382812 "/>
<path style="fill-rule:nonzero;fill:rgb(41.960784%,68.235294%,83.921569%);fill-opacity:1;stroke-width:0.708661;stroke-linecap:round;stroke-linejoin:round;stroke:rgb(41.960784%,68.235294%,83.921569%);stroke-opacity:1;stroke-miterlimit:10;" d="M 379.199219 544.8125 C 379.199219 550.902344 374.265625 555.835938 368.175781 555.835938 C 362.089844 555.835938 357.152344 550.902344 357.152344 544.8125 C 357.152344 538.726562 362.089844 533.789062 368.175781 533.789062 C 374.265625 533.789062 379.199219 538.726562 379.199219 544.8125 "/>
<path style="fill-rule:nonzero;fill:rgb(41.960784%,68.235294%,83.921569%);fill-opacity:1;stroke-width:0.708661;stroke-linecap:round;stroke-linejoin:round;stroke:rgb(41.960784%,68.235294%,83.921569%);stroke-opacity:1;stroke-miterlimit:10;" d="M 154.5 469.082031 C 154.5 475.171875 149.5625 480.109375 143.476562 480.109375 C 137.386719 480.109375 132.449219 475.171875 132.449219 469.082031 C 132.449219 462.996094 137.386719 458.058594 143.476562 458.058594 C 149.5625 458.058594 154.5 462.996094 154.5 469.082031 "/>
<path style="fill-rule:nonzero;fill:rgb(61.960784%,79.215686%,88.235294%);fill-opacity:1;stroke-width:0.708661;stroke-linecap:round;stroke-linejoin:round;stroke:rgb(61.960784%,79.215686%,88.235294%);stroke-opacity:1;stroke-miterlimit:10;" d="M 469.472656 742.375 C 469.472656 748.464844 464.535156 753.398438 458.445312 753.398438 C 452.359375 753.398438 447.421875 748.464844 447.421875 742.375 C 447.421875 736.285156 452.359375 731.351562 458.445312 731.351562 C 464.535156 731.351562 469.472656 736.285156 469.472656 742.375 "/>
<path style="fill-rule:nonzero;fill:rgb(41.960784%,68.235294%,83.921569%);fill-opacity:1;stroke-width:0.708661;stroke-linecap:round;stroke-linejoin:round;stroke:rgb(41.960784%,68.235294%,83.921569%);stroke-opacity:1;stroke-miterlimit:10;" d="M 559.859375 454.996094 C 559.859375 461.085938 554.925781 466.019531 548.835938 466.019531 C 542.746094 466.019531 537.8125 461.085938 537.8125 454.996094 C 537.8125 448.90625 542.746094 443.972656 548.835938 443.972656 C 554.925781 443.972656 559.859375 448.90625 559.859375 454.996094 "/>
<g style="fill:rgb(0%,0%,0%);fill-opacity:1;">
  <use xlink:href="#glyph1-1" x="728.953125" y="822.789062"/>
  <use xlink:href="#glyph1-2" x="739.953125" y="822.789062"/>
  <use xlink:href="#glyph1-3" x="750.953125" y="822.789062"/>
  <use xlink:href="#glyph1-3" x="762.953125" y="822.789062"/>
  <use xlink:href="#glyph1-4" x="774.953125" y="822.789062"/>
  <use xlink:href="#glyph1-5" x="785.953125" y="822.789062"/>
</g>
<g style="fill:rgb(0%,0%,0%);fill-opacity:1;">
  <use xlink:href="#glyph1-6" x="731.5625" y="570.089844"/>
  <use xlink:href="#glyph1-3" x="747.5625" y="570.089844"/>
  <use xlink:href="#glyph1-2" x="760.5625" y="570.089844"/>
  <use xlink:href="#glyph1-7" x="770.5625" y="570.089844"/>
  <use xlink:href="#glyph1-4" x="779.5625" y="570.089844"/>
</g>
<g style="fill:rgb(0%,0%,0%);fill-opacity:1;">
  <use xlink:href="#glyph1-8" x="29.109375" y="49.789062"/>
  <use xlink:href="#glyph1-9" x="37.109375" y="49.789062"/>
  <use xlink:href="#glyph1-10" x="45.109375" y="49.789062"/>
  <use xlink:href="#glyph1-11" x="50.109375" y="49.789062"/>
</g>
<g style="fill:rgb(0%,0%,0%);fill-opacity:1;">
  <use xlink:href="#glyph1-12" x="210.246094" y="271.878906"/>
  <use xlink:href="#glyph1-13" x="221.246094" y="271.878906"/>
  <use xlink:href="#glyph1-14" x="234.246094" y="271.878906"/>
  <use xlink:href="#glyph1-11" x="244.246094" y="271.878906"/>
</g>
<g style="fill:rgb(0%,0%,0%);fill-opacity:1;">
  <use xlink:href="#glyph1-15" x="496.429688" y="277.042969"/>
  <use xlink:href="#glyph1-16" x="506.429688" y="277.042969"/>
  <use xlink:href="#glyph1-12" x="516.429688" y="277.042969"/>
  <use xlink:href="#glyph1-7" x="528.429688" y="277.042969"/>
</g>
<g style="fill:rgb(0%,0%,0%);fill-opacity:1;">
  <use xlink:href="#glyph1-17" x="342.175781" y="550.472656"/>
  <use xlink:href="#glyph1-18" x="355.175781" y="550.472656"/>
  <use xlink:href="#glyph1-19" x="367.175781" y="550.472656"/>
  <use xlink:href="#glyph1-3" x="373.175781" y="550.472656"/>
  <use xlink:href="#glyph1-5" x="385.175781" y="550.472656"/>
</g>
<g style="fill:rgb(0%,0%,0%);fill-opacity:1;">
  <use xlink:href="#glyph1-20" x="116.976562" y="474.742188"/>
  <use xlink:href="#glyph1-21" x="128.976562" y="474.742188"/>
  <use xlink:href="#glyph1-22" x="137.976562" y="474.742188"/>
  <use xlink:href="#glyph1-11" x="149.976562" y="474.742188"/>
  <use xlink:href="#glyph1-4" x="158.976562" y="474.742188"/>
</g>
<g style="fill:rgb(0%,0%,0%);fill-opacity:1;">
  <use xlink:href="#glyph1-17" x="441.945312" y="748.035156"/>
  <use xlink:href="#glyph1-23" x="453.945312" y="748.035156"/>
  <use xlink:href="#glyph1-1" x="463.945312" y="748.035156"/>
</g>
<g style="fill:rgb(0%,0%,0%);fill-opacity:1;">
  <use xlink:href="#glyph1-2" x="519.835938" y="460.65625"/>
  <use xlink:href="#glyph1-1" x="529.835938" y="460.65625"/>
  <use xlink:href="#glyph1-15" x="540.835938" y="460.65625"/>
  <use xlink:href="#glyph1-24" x="549.835938" y="460.65625"/>
  <use xlink:href="#glyph1-14" x="558.835938" y="460.65625"/>
  <use xlink:href="#glyph1-7" x="568.835938" y="460.65625"/>
</g>
<path style=" stroke:none;fill-rule:nonzero;fill:rgb(100%,100%,100%);fill-opacity:1;" d="M 808.800781 462.128906 L 858.519531 462.128906 L 858.519531 399.128906 L 808.800781 399.128906 Z M 808.800781 462.128906 "/>
<g style="fill:rgb(0%,0%,0%);fill-opacity:1;">
  <use xlink:href="#glyph2-1" x="814.28125" y="414.12793"/>
  <use xlink:href="#glyph2-2" x="820.28125" y="414.12793"/>
  <use xlink:href="#glyph2-3" x="826.28125" y="414.12793"/>
  <use xlink:href="#glyph2-1" x="832.28125" y="414.12793"/>
</g>
<path style=" stroke:none;fill-rule:nonzero;fill:rgb(94.901961%,94.901961%,94.901961%);fill-opacity:1;" d="M 814.28125 439.371094 L 831.5625 439.371094 L 831.5625 422.089844 L 814.28125 422.089844 Z M 814.28125 439.371094 "/>
<path style="fill:none;stroke-width:1.066978;stroke-linecap:butt;stroke-linejoin:round;stroke:rgb(97.254902%,46.27451%,42.745098%);stroke-opacity:1;stroke-miterlimit:10;" d="M 816.007812 430.730469 L 829.832031 430.730469 "/>
<path style="fill-rule:nonzero;fill:rgb(100%,100%,100%);fill-opacity:1;stroke-width:1.066978;stroke-linecap:butt;stroke-linejoin:round;stroke:rgb(97.254902%,46.27451%,42.745098%);stroke-opacity:1;stroke-miterlimit:10;" d="M 823.066406 433.191406 L 829.832031 430.730469 L 823.066406 428.265625 Z M 823.066406 433.191406 "/>
<path style=" stroke:none;fill-rule:nonzero;fill:rgb(94.901961%,94.901961%,94.901961%);fill-opacity:1;" d="M 814.28125 456.648438 L 831.5625 456.648438 L 831.5625 439.367188 L 814.28125 439.367188 Z M 814.28125 456.648438 "/>
<path style="fill:none;stroke-width:1.066978;stroke-linecap:butt;stroke-linejoin:round;stroke:rgb(0%,74.901961%,76.862745%);stroke-opacity:1;stroke-miterlimit:10;" d="M 816.007812 448.011719 L 829.832031 448.011719 "/>
<path style="fill-rule:nonzero;fill:rgb(100%,100%,100%);fill-opacity:1;stroke-width:1.066978;stroke-linecap:butt;stroke-linejoin:round;stroke:rgb(0%,74.901961%,76.862745%);stroke-opacity:1;stroke-miterlimit:10;" d="M 823.066406 450.472656 L 829.832031 448.011719 L 823.066406 445.546875 Z M 823.066406 450.472656 "/>
<g style="fill:rgb(0%,0%,0%);fill-opacity:1;">
  <use xlink:href="#glyph3-1" x="837.042969" y="433.645508"/>
  <use xlink:href="#glyph3-2" x="842.042969" y="433.645508"/>
  <use xlink:href="#glyph3-3" x="847.042969" y="433.645508"/>
</g>
<g style="fill:rgb(0%,0%,0%);fill-opacity:1;">
  <use xlink:href="#glyph3-4" x="837.042969" y="450.926758"/>
  <use xlink:href="#glyph3-5" x="843.042969" y="450.926758"/>
</g>
</g>
</svg>
