<?xml version="1.0" encoding="UTF-8"?>
<svg xmlns="http://www.w3.org/2000/svg" xmlns:xlink="http://www.w3.org/1999/xlink" width="504pt" height="504pt" viewBox="0 0 504 504" version="1.1">
<defs>
<g>
<symbol overflow="visible" id="glyph0-0">
<path style="stroke:none;" d=""/>
</symbol>
<symbol overflow="visible" id="glyph0-1">
<path style="stroke:none;" d="M 3.296875 -8.671875 C 2.515625 -8.671875 1.78125 -8.3125 1.34375 -7.734375 C 0.796875 -6.953125 0.515625 -5.8125 0.515625 -4.203125 C 0.515625 -1.265625 1.46875 0.28125 3.296875 0.28125 C 5.09375 0.28125 6.078125 -1.265625 6.078125 -4.125 C 6.078125 -5.8125 5.8125 -6.9375 5.25 -7.734375 C 4.8125 -8.328125 4.109375 -8.671875 3.296875 -8.671875 Z M 3.296875 -7.734375 C 4.4375 -7.734375 5 -6.578125 5 -4.21875 C 5 -1.75 4.453125 -0.59375 3.28125 -0.59375 C 2.15625 -0.59375 1.59375 -1.796875 1.59375 -4.1875 C 1.59375 -6.578125 2.15625 -7.734375 3.296875 -7.734375 Z M 3.296875 -7.734375 "/>
</symbol>
<symbol overflow="visible" id="glyph0-2">
<path style="stroke:none;" d="M 2.296875 -1.25 L 1.046875 -1.25 L 1.046875 0 L 2.296875 0 Z M 2.296875 -1.25 "/>
</symbol>
<symbol overflow="visible" id="glyph0-3">
<path style="stroke:none;" d="M 2.65625 -4 L 3.234375 -4 C 4.375 -4 4.984375 -3.453125 4.984375 -2.40625 C 4.984375 -1.3125 4.328125 -0.65625 3.234375 -0.65625 C 2.078125 -0.65625 1.515625 -1.25 1.4375 -2.515625 L 0.390625 -2.515625 C 0.4375 -1.828125 0.546875 -1.375 0.75 -0.984375 C 1.203125 -0.140625 2.03125 0.28125 3.1875 0.28125 C 4.9375 0.28125 6.078125 -0.78125 6.078125 -2.421875 C 6.078125 -3.53125 5.65625 -4.125 4.625 -4.484375 C 5.421875 -4.8125 5.8125 -5.40625 5.8125 -6.28125 C 5.8125 -7.78125 4.84375 -8.671875 3.234375 -8.671875 C 1.515625 -8.671875 0.59375 -7.71875 0.5625 -5.875 L 1.625 -5.875 C 1.625 -6.40625 1.6875 -6.703125 1.8125 -6.96875 C 2.046875 -7.46875 2.578125 -7.75 3.234375 -7.75 C 4.171875 -7.75 4.734375 -7.1875 4.734375 -6.25 C 4.734375 -5.640625 4.53125 -5.265625 4.0625 -5.0625 C 3.765625 -4.9375 3.390625 -4.890625 2.65625 -4.890625 Z M 2.65625 -4 "/>
</symbol>
<symbol overflow="visible" id="glyph0-4">
<path style="stroke:none;" d="M 3.921875 -2.09375 L 3.921875 0 L 4.984375 0 L 4.984375 -2.09375 L 6.234375 -2.09375 L 6.234375 -3.046875 L 4.984375 -3.046875 L 4.984375 -8.671875 L 4.203125 -8.671875 L 0.34375 -3.21875 L 0.34375 -2.09375 Z M 3.921875 -3.046875 L 1.265625 -3.046875 L 3.921875 -6.875 Z M 3.921875 -3.046875 "/>
</symbol>
<symbol overflow="visible" id="glyph0-5">
<path style="stroke:none;" d="M 5.71875 -8.515625 L 1.3125 -8.515625 L 0.6875 -3.875 L 1.65625 -3.875 C 2.140625 -4.46875 2.5625 -4.671875 3.234375 -4.671875 C 4.375 -4.671875 5.078125 -3.890625 5.078125 -2.625 C 5.078125 -1.40625 4.375 -0.65625 3.21875 -0.65625 C 2.296875 -0.65625 1.734375 -1.125 1.46875 -2.09375 L 0.421875 -2.09375 C 0.5625 -1.390625 0.6875 -1.0625 0.9375 -0.75 C 1.421875 -0.09375 2.28125 0.28125 3.234375 0.28125 C 4.953125 0.28125 6.15625 -0.96875 6.15625 -2.765625 C 6.15625 -4.453125 5.046875 -5.609375 3.40625 -5.609375 C 2.8125 -5.609375 2.328125 -5.453125 1.84375 -5.09375 L 2.171875 -7.46875 L 5.71875 -7.46875 Z M 5.71875 -8.515625 "/>
</symbol>
<symbol overflow="visible" id="glyph0-6">
<path style="stroke:none;" d="M 5.96875 -6.421875 C 5.765625 -7.84375 4.859375 -8.671875 3.5625 -8.671875 C 2.625 -8.671875 1.78125 -8.21875 1.28125 -7.4375 C 0.75 -6.59375 0.515625 -5.53125 0.515625 -3.953125 C 0.515625 -2.5 0.71875 -1.578125 1.234375 -0.796875 C 1.6875 -0.09375 2.4375 0.28125 3.375 0.28125 C 4.984375 0.28125 6.15625 -0.9375 6.15625 -2.625 C 6.15625 -4.21875 5.078125 -5.359375 3.546875 -5.359375 C 2.71875 -5.359375 2.046875 -5.046875 1.59375 -4.40625 C 1.609375 -6.546875 2.28125 -7.734375 3.484375 -7.734375 C 4.234375 -7.734375 4.75 -7.265625 4.921875 -6.421875 Z M 3.421875 -4.421875 C 4.4375 -4.421875 5.078125 -3.703125 5.078125 -2.546875 C 5.078125 -1.453125 4.359375 -0.65625 3.390625 -0.65625 C 2.40625 -0.65625 1.65625 -1.484375 1.65625 -2.59375 C 1.65625 -3.671875 2.375 -4.421875 3.421875 -4.421875 Z M 3.421875 -4.421875 "/>
</symbol>
<symbol overflow="visible" id="glyph0-7">
<path style="stroke:none;" d="M 6.234375 -8.515625 L 0.546875 -8.515625 L 0.546875 -7.46875 L 5.140625 -7.46875 C 3.125 -4.578125 2.296875 -2.796875 1.65625 0 L 2.78125 0 C 3.25 -2.71875 4.3125 -5.0625 6.234375 -7.625 Z M 6.234375 -8.515625 "/>
</symbol>
<symbol overflow="visible" id="glyph0-8">
<path style="stroke:none;" d="M 5.609375 0 L 8.078125 -7.328125 L 8.078125 0 L 9.125 0 L 9.125 -8.75 L 7.578125 -8.75 L 5.046875 -1.125 L 2.453125 -8.75 L 0.90625 -8.75 L 0.90625 0 L 1.953125 0 L 1.953125 -7.328125 L 4.4375 0 Z M 5.609375 0 "/>
</symbol>
<symbol overflow="visible" id="glyph0-9">
<path style="stroke:none;" d="M 7.9375 -6.03125 C 7.59375 -7.953125 6.484375 -8.890625 4.578125 -8.890625 C 3.390625 -8.890625 2.453125 -8.515625 1.796875 -7.796875 C 1.015625 -6.9375 0.578125 -5.6875 0.578125 -4.265625 C 0.578125 -2.828125 1.015625 -1.59375 1.84375 -0.75 C 2.515625 -0.046875 3.390625 0.28125 4.53125 0.28125 C 6.65625 0.28125 7.859375 -0.875 8.125 -3.1875 L 6.96875 -3.1875 C 6.875 -2.59375 6.75 -2.1875 6.578125 -1.84375 C 6.21875 -1.109375 5.46875 -0.703125 4.53125 -0.703125 C 2.796875 -0.703125 1.6875 -2.09375 1.6875 -4.28125 C 1.6875 -6.53125 2.734375 -7.90625 4.4375 -7.90625 C 5.140625 -7.90625 5.8125 -7.703125 6.171875 -7.359375 C 6.484375 -7.0625 6.671875 -6.703125 6.796875 -6.03125 Z M 7.9375 -6.03125 "/>
</symbol>
<symbol overflow="visible" id="glyph0-10">
<path style="stroke:none;" d=""/>
</symbol>
<symbol overflow="visible" id="glyph0-11">
<path style="stroke:none;" d="M 0.828125 -6.28125 L 0.828125 0 L 1.84375 0 L 1.84375 -3.265625 C 1.84375 -4.78125 2.46875 -5.453125 3.859375 -5.40625 L 3.859375 -6.4375 C 3.6875 -6.453125 3.59375 -6.46875 3.46875 -6.46875 C 2.8125 -6.46875 2.328125 -6.078125 1.75 -5.140625 L 1.75 -6.28125 Z M 0.828125 -6.28125 "/>
</symbol>
<symbol overflow="visible" id="glyph0-12">
<path style="stroke:none;" d="M 5.78125 0 L 5.78125 -6.28125 L 4.78125 -6.28125 L 4.78125 -2.71875 C 4.78125 -1.4375 4.109375 -0.59375 3.078125 -0.59375 C 2.28125 -0.59375 1.78125 -1.078125 1.78125 -1.84375 L 1.78125 -6.28125 L 0.78125 -6.28125 L 0.78125 -1.4375 C 0.78125 -0.390625 1.5625 0.28125 2.78125 0.28125 C 3.703125 0.28125 4.296875 -0.046875 4.890625 -0.875 L 4.890625 0 Z M 5.78125 0 "/>
</symbol>
<symbol overflow="visible" id="glyph0-13">
<path style="stroke:none;" d="M 0.84375 -6.28125 L 0.84375 0 L 1.84375 0 L 1.84375 -3.46875 C 1.84375 -4.75 2.515625 -5.59375 3.546875 -5.59375 C 4.34375 -5.59375 4.84375 -5.109375 4.84375 -4.359375 L 4.84375 0 L 5.84375 0 L 5.84375 -4.75 C 5.84375 -5.796875 5.0625 -6.46875 3.859375 -6.46875 C 2.921875 -6.46875 2.3125 -6.109375 1.765625 -5.234375 L 1.765625 -6.28125 Z M 0.84375 -6.28125 "/>
</symbol>
<symbol overflow="visible" id="glyph0-14">
<path style="stroke:none;" d="M 6.078125 -1.046875 L 1.59375 -1.046875 C 1.703125 -1.765625 2.09375 -2.21875 3.125 -2.859375 L 4.328125 -3.53125 C 5.515625 -4.1875 6.125 -5.078125 6.125 -6.140625 C 6.125 -6.859375 5.84375 -7.53125 5.34375 -8 C 4.84375 -8.453125 4.21875 -8.671875 3.40625 -8.671875 C 2.328125 -8.671875 1.53125 -8.296875 1.0625 -7.546875 C 0.75 -7.09375 0.625 -6.546875 0.59375 -5.671875 L 1.65625 -5.671875 C 1.6875 -6.265625 1.765625 -6.609375 1.90625 -6.90625 C 2.1875 -7.421875 2.734375 -7.75 3.375 -7.75 C 4.328125 -7.75 5.046875 -7.0625 5.046875 -6.125 C 5.046875 -5.421875 4.65625 -4.828125 3.90625 -4.390625 L 2.796875 -3.75 C 1.015625 -2.71875 0.5 -1.90625 0.40625 -0.015625 L 6.078125 -0.015625 Z M 6.078125 -1.046875 "/>
</symbol>
<symbol overflow="visible" id="glyph1-0">
<path style="stroke:none;" d=""/>
</symbol>
<symbol overflow="visible" id="glyph1-1">
<path style="stroke:none;" d="M -8.671875 -3.296875 C -8.671875 -2.515625 -8.3125 -1.78125 -7.734375 -1.34375 C -6.953125 -0.796875 -5.8125 -0.515625 -4.203125 -0.515625 C -1.265625 -0.515625 0.28125 -1.46875 0.28125 -3.296875 C 0.28125 -5.09375 -1.265625 -6.078125 -4.125 -6.078125 C -5.8125 -6.078125 -6.9375 -5.8125 -7.734375 -5.25 C -8.328125 -4.8125 -8.671875 -4.109375 -8.671875 -3.296875 Z M -7.734375 -3.296875 C -7.734375 -4.4375 -6.578125 -5 -4.21875 -5 C -1.75 -5 -0.59375 -4.453125 -0.59375 -3.28125 C -0.59375 -2.15625 -1.796875 -1.59375 -4.1875 -1.59375 C -6.578125 -1.59375 -7.734375 -2.15625 -7.734375 -3.296875 Z M -7.734375 -3.296875 "/>
</symbol>
<symbol overflow="visible" id="glyph1-2">
<path style="stroke:none;" d="M -1.25 -2.296875 L -1.25 -1.046875 L 0 -1.046875 L 0 -2.296875 Z M -1.25 -2.296875 "/>
</symbol>
<symbol overflow="visible" id="glyph1-3">
<path style="stroke:none;" d="M -4 -2.65625 L -4 -3.234375 C -4 -4.375 -3.453125 -4.984375 -2.40625 -4.984375 C -1.3125 -4.984375 -0.65625 -4.328125 -0.65625 -3.234375 C -0.65625 -2.078125 -1.25 -1.515625 -2.515625 -1.4375 L -2.515625 -0.390625 C -1.828125 -0.4375 -1.375 -0.546875 -0.984375 -0.75 C -0.140625 -1.203125 0.28125 -2.03125 0.28125 -3.1875 C 0.28125 -4.9375 -0.78125 -6.078125 -2.421875 -6.078125 C -3.53125 -6.078125 -4.125 -5.65625 -4.484375 -4.625 C -4.8125 -5.421875 -5.40625 -5.8125 -6.28125 -5.8125 C -7.78125 -5.8125 -8.671875 -4.84375 -8.671875 -3.234375 C -8.671875 -1.515625 -7.71875 -0.59375 -5.875 -0.5625 L -5.875 -1.625 C -6.40625 -1.625 -6.703125 -1.6875 -6.96875 -1.8125 C -7.46875 -2.046875 -7.75 -2.578125 -7.75 -3.234375 C -7.75 -4.171875 -7.1875 -4.734375 -6.25 -4.734375 C -5.640625 -4.734375 -5.265625 -4.53125 -5.0625 -4.0625 C -4.9375 -3.765625 -4.890625 -3.390625 -4.890625 -2.65625 Z M -4 -2.65625 "/>
</symbol>
<symbol overflow="visible" id="glyph1-4">
<path style="stroke:none;" d="M -2.09375 -3.921875 L 0 -3.921875 L 0 -4.984375 L -2.09375 -4.984375 L -2.09375 -6.234375 L -3.046875 -6.234375 L -3.046875 -4.984375 L -8.671875 -4.984375 L -8.671875 -4.203125 L -3.21875 -0.34375 L -2.09375 -0.34375 Z M -3.046875 -3.921875 L -3.046875 -1.265625 L -6.875 -3.921875 Z M -3.046875 -3.921875 "/>
</symbol>
<symbol overflow="visible" id="glyph1-5">
<path style="stroke:none;" d="M -8.515625 -5.71875 L -8.515625 -1.3125 L -3.875 -0.6875 L -3.875 -1.65625 C -4.46875 -2.140625 -4.671875 -2.5625 -4.671875 -3.234375 C -4.671875 -4.375 -3.890625 -5.078125 -2.625 -5.078125 C -1.40625 -5.078125 -0.65625 -4.375 -0.65625 -3.21875 C -0.65625 -2.296875 -1.125 -1.734375 -2.09375 -1.46875 L -2.09375 -0.421875 C -1.390625 -0.5625 -1.0625 -0.6875 -0.75 -0.9375 C -0.09375 -1.421875 0.28125 -2.28125 0.28125 -3.234375 C 0.28125 -4.953125 -0.96875 -6.15625 -2.765625 -6.15625 C -4.453125 -6.15625 -5.609375 -5.046875 -5.609375 -3.40625 C -5.609375 -2.8125 -5.453125 -2.328125 -5.09375 -1.84375 L -7.46875 -2.171875 L -7.46875 -5.71875 Z M -8.515625 -5.71875 "/>
</symbol>
<symbol overflow="visible" id="glyph1-6">
<path style="stroke:none;" d="M -6.421875 -5.96875 C -7.84375 -5.765625 -8.671875 -4.859375 -8.671875 -3.5625 C -8.671875 -2.625 -8.21875 -1.78125 -7.4375 -1.28125 C -6.59375 -0.75 -5.53125 -0.515625 -3.953125 -0.515625 C -2.5 -0.515625 -1.578125 -0.71875 -0.796875 -1.234375 C -0.09375 -1.6875 0.28125 -2.4375 0.28125 -3.375 C 0.28125 -4.984375 -0.9375 -6.15625 -2.625 -6.15625 C -4.21875 -6.15625 -5.359375 -5.078125 -5.359375 -3.546875 C -5.359375 -2.71875 -5.046875 -2.046875 -4.40625 -1.59375 C -6.546875 -1.609375 -7.734375 -2.28125 -7.734375 -3.484375 C -7.734375 -4.234375 -7.265625 -4.75 -6.421875 -4.921875 Z M -4.421875 -3.421875 C -4.421875 -4.4375 -3.703125 -5.078125 -2.546875 -5.078125 C -1.453125 -5.078125 -0.65625 -4.359375 -0.65625 -3.390625 C -0.65625 -2.40625 -1.484375 -1.65625 -2.59375 -1.65625 C -3.671875 -1.65625 -4.421875 -2.375 -4.421875 -3.421875 Z M -4.421875 -3.421875 "/>
</symbol>
<symbol overflow="visible" id="glyph1-7">
<path style="stroke:none;" d="M -8.515625 -6.234375 L -8.515625 -0.546875 L -7.46875 -0.546875 L -7.46875 -5.140625 C -4.578125 -3.125 -2.796875 -2.296875 0 -1.65625 L 0 -2.78125 C -2.71875 -3.25 -5.0625 -4.3125 -7.625 -6.234375 Z M -8.515625 -6.234375 "/>
</symbol>
<symbol overflow="visible" id="glyph1-8">
<path style="stroke:none;" d="M 0 -5.609375 L -7.328125 -8.078125 L 0 -8.078125 L 0 -9.125 L -8.75 -9.125 L -8.75 -7.578125 L -1.125 -5.046875 L -8.75 -2.453125 L -8.75 -0.90625 L 0 -0.90625 L 0 -1.953125 L -7.328125 -1.953125 L 0 -4.4375 Z M 0 -5.609375 "/>
</symbol>
<symbol overflow="visible" id="glyph1-9">
<path style="stroke:none;" d="M -6.03125 -7.9375 C -7.953125 -7.59375 -8.890625 -6.484375 -8.890625 -4.578125 C -8.890625 -3.390625 -8.515625 -2.453125 -7.796875 -1.796875 C -6.9375 -1.015625 -5.6875 -0.578125 -4.265625 -0.578125 C -2.828125 -0.578125 -1.59375 -1.015625 -0.75 -1.84375 C -0.046875 -2.515625 0.28125 -3.390625 0.28125 -4.53125 C 0.28125 -6.65625 -0.875 -7.859375 -3.1875 -8.125 L -3.1875 -6.96875 C -2.59375 -6.875 -2.1875 -6.75 -1.84375 -6.578125 C -1.109375 -6.21875 -0.703125 -5.46875 -0.703125 -4.53125 C -0.703125 -2.796875 -2.09375 -1.6875 -4.28125 -1.6875 C -6.53125 -1.6875 -7.90625 -2.734375 -7.90625 -4.4375 C -7.90625 -5.140625 -7.703125 -5.8125 -7.359375 -6.171875 C -7.0625 -6.484375 -6.703125 -6.671875 -6.03125 -6.796875 Z M -6.03125 -7.9375 "/>
</symbol>
<symbol overflow="visible" id="glyph1-10">
<path style="stroke:none;" d=""/>
</symbol>
<symbol overflow="visible" id="glyph1-11">
<path style="stroke:none;" d="M -6.28125 -0.828125 L 0 -0.828125 L 0 -1.84375 L -3.265625 -1.84375 C -4.78125 -1.84375 -5.453125 -2.46875 -5.40625 -3.859375 L -6.4375 -3.859375 C -6.453125 -3.6875 -6.46875 -3.59375 -6.46875 -3.46875 C -6.46875 -2.8125 -6.078125 -2.328125 -5.140625 -1.75 L -6.28125 -1.75 Z M -6.28125 -0.828125 "/>
</symbol>
<symbol overflow="visible" id="glyph1-12">
<path style="stroke:none;" d="M 0 -5.78125 L -6.28125 -5.78125 L -6.28125 -4.78125 L -2.71875 -4.78125 C -1.4375 -4.78125 -0.59375 -4.109375 -0.59375 -3.078125 C -0.59375 -2.28125 -1.078125 -1.78125 -1.84375 -1.78125 L -6.28125 -1.78125 L -6.28125 -0.78125 L -1.4375 -0.78125 C -0.390625 -0.78125 0.28125 -1.5625 0.28125 -2.78125 C 0.28125 -3.703125 -0.046875 -4.296875 -0.875 -4.890625 L 0 -4.890625 Z M 0 -5.78125 "/>
</symbol>
<symbol overflow="visible" id="glyph1-13">
<path style="stroke:none;" d="M -6.28125 -0.84375 L 0 -0.84375 L 0 -1.84375 L -3.46875 -1.84375 C -4.75 -1.84375 -5.59375 -2.515625 -5.59375 -3.546875 C -5.59375 -4.34375 -5.109375 -4.84375 -4.359375 -4.84375 L 0 -4.84375 L 0 -5.84375 L -4.75 -5.84375 C -5.796875 -5.84375 -6.46875 -5.0625 -6.46875 -3.859375 C -6.46875 -2.921875 -6.109375 -2.3125 -5.234375 -1.765625 L -6.28125 -1.765625 Z M -6.28125 -0.84375 "/>
</symbol>
<symbol overflow="visible" id="glyph1-14">
<path style="stroke:none;" d="M -6.1875 -3.109375 L 0 -3.109375 L 0 -4.15625 L -8.671875 -4.15625 L -8.671875 -3.46875 C -7.34375 -3.09375 -7.15625 -2.859375 -6.953125 -1.21875 L -6.1875 -1.21875 Z M -6.1875 -3.109375 "/>
</symbol>
<symbol overflow="visible" id="glyph2-0">
<path style="stroke:none;" d=""/>
</symbol>
<symbol overflow="visible" id="glyph2-1">
<path style="stroke:none;" d="M 9.828125 -6.9375 C 9.75 -7.84375 9.5625 -8.421875 9.125 -9.015625 C 8.3125 -10.078125 7.015625 -10.671875 5.453125 -10.671875 C 2.484375 -10.671875 0.640625 -8.5625 0.640625 -5.15625 C 0.640625 -1.765625 2.46875 0.328125 5.390625 0.328125 C 8.015625 0.328125 9.734375 -1.1875 9.875 -3.59375 L 7.765625 -3.59375 C 7.625 -2.25 6.78125 -1.484375 5.453125 -1.484375 C 3.78125 -1.484375 2.796875 -2.84375 2.796875 -5.125 C 2.796875 -7.453125 3.8125 -8.828125 5.515625 -8.828125 C 6.765625 -8.828125 7.484375 -8.21875 7.765625 -6.9375 Z M 9.828125 -6.9375 "/>
</symbol>
<symbol overflow="visible" id="glyph2-2">
<path style="stroke:none;" d="M 4.34375 -7.90625 C 1.953125 -7.90625 0.5 -6.34375 0.5 -3.78125 C 0.5 -1.21875 1.953125 0.328125 4.34375 0.328125 C 6.734375 0.328125 8.203125 -1.21875 8.203125 -3.734375 C 8.203125 -6.375 6.765625 -7.90625 4.34375 -7.90625 Z M 4.34375 -6.28125 C 5.453125 -6.28125 6.1875 -5.28125 6.1875 -3.765625 C 6.1875 -2.3125 5.4375 -1.296875 4.34375 -1.296875 C 3.25 -1.296875 2.515625 -2.296875 2.515625 -3.78125 C 2.515625 -5.28125 3.25 -6.28125 4.34375 -6.28125 Z M 4.34375 -6.28125 "/>
</symbol>
<symbol overflow="visible" id="glyph2-3">
<path style="stroke:none;" d="M 0.90625 -7.78125 L 0.90625 0 L 2.921875 0 L 2.921875 -4.671875 C 2.921875 -5.59375 3.5625 -6.1875 4.546875 -6.1875 C 5.421875 -6.1875 5.84375 -5.71875 5.84375 -4.796875 L 5.84375 0 L 7.859375 0 L 7.859375 -5.21875 C 7.859375 -6.9375 6.921875 -7.90625 5.265625 -7.90625 C 4.203125 -7.90625 3.5 -7.53125 2.921875 -6.65625 L 2.921875 -7.78125 Z M 0.90625 -7.78125 "/>
</symbol>
<symbol overflow="visible" id="glyph2-4">
<path style="stroke:none;" d="M 7.28125 -5.265625 C 7.25 -6.921875 5.984375 -7.90625 3.890625 -7.90625 C 1.921875 -7.90625 0.6875 -6.921875 0.6875 -5.3125 C 0.6875 -4.796875 0.84375 -4.34375 1.125 -4.046875 C 1.390625 -3.78125 1.640625 -3.640625 2.390625 -3.40625 L 4.796875 -2.65625 C 5.296875 -2.5 5.46875 -2.328125 5.46875 -2.015625 C 5.46875 -1.546875 4.90625 -1.25 3.96875 -1.25 C 3.4375 -1.25 3.046875 -1.34375 2.78125 -1.53125 C 2.5625 -1.6875 2.484375 -1.84375 2.390625 -2.265625 L 0.421875 -2.265625 C 0.46875 -0.546875 1.734375 0.328125 4.09375 0.328125 C 5.171875 0.328125 6 0.09375 6.5625 -0.359375 C 7.140625 -0.828125 7.484375 -1.546875 7.484375 -2.3125 C 7.484375 -3.3125 6.984375 -3.96875 5.96875 -4.265625 L 3.421875 -5 C 2.859375 -5.171875 2.703125 -5.28125 2.703125 -5.609375 C 2.703125 -6.03125 3.171875 -6.328125 3.875 -6.328125 C 4.84375 -6.328125 5.3125 -5.984375 5.328125 -5.265625 Z M 7.28125 -5.265625 "/>
</symbol>
<symbol overflow="visible" id="glyph2-5">
<path style="stroke:none;" d="M 2.984375 -7.78125 L 0.96875 -7.78125 L 0.96875 0 L 2.984375 0 Z M 2.984375 -10.5 L 0.96875 -10.5 L 0.96875 -8.703125 L 2.984375 -8.703125 Z M 2.984375 -10.5 "/>
</symbol>
<symbol overflow="visible" id="glyph2-6">
<path style="stroke:none;" d="M 4.34375 -7.625 L 3.21875 -7.625 L 3.21875 -9.703125 L 1.203125 -9.703125 L 1.203125 -7.625 L 0.203125 -7.625 L 0.203125 -6.28125 L 1.203125 -6.28125 L 1.203125 -1.5 C 1.203125 -0.28125 1.84375 0.328125 3.171875 0.328125 C 3.625 0.328125 3.96875 0.28125 4.34375 0.171875 L 4.34375 -1.234375 C 4.140625 -1.203125 4.03125 -1.203125 3.875 -1.203125 C 3.34375 -1.203125 3.21875 -1.359375 3.21875 -2.046875 L 3.21875 -6.28125 L 4.34375 -6.28125 Z M 4.34375 -7.625 "/>
</symbol>
<symbol overflow="visible" id="glyph2-7">
<path style="stroke:none;" d="M 7.546875 -3.25 C 7.5625 -3.421875 7.5625 -3.5 7.5625 -3.59375 C 7.5625 -4.375 7.453125 -5.09375 7.265625 -5.640625 C 6.734375 -7.0625 5.484375 -7.90625 3.921875 -7.90625 C 1.6875 -7.90625 0.3125 -6.296875 0.3125 -3.6875 C 0.3125 -1.203125 1.671875 0.328125 3.875 0.328125 C 5.625 0.328125 7.03125 -0.640625 7.484375 -2.1875 L 5.484375 -2.1875 C 5.25 -1.5625 4.6875 -1.203125 3.953125 -1.203125 C 3.375 -1.203125 2.90625 -1.453125 2.625 -1.890625 C 2.4375 -2.171875 2.359375 -2.515625 2.328125 -3.25 Z M 2.359375 -4.59375 C 2.5 -5.796875 3 -6.375 3.890625 -6.375 C 4.8125 -6.375 5.359375 -5.75 5.453125 -4.59375 Z M 2.359375 -4.59375 "/>
</symbol>
<symbol overflow="visible" id="glyph2-8">
<path style="stroke:none;" d="M 7.515625 -4.875 C 7.375 -6.765625 6.125 -7.90625 4.15625 -7.90625 C 1.828125 -7.90625 0.484375 -6.375 0.484375 -3.734375 C 0.484375 -1.171875 1.828125 0.328125 4.140625 0.328125 C 6.015625 0.328125 7.328125 -0.828125 7.515625 -2.6875 L 5.59375 -2.6875 C 5.34375 -1.6875 4.9375 -1.296875 4.140625 -1.296875 C 3.109375 -1.296875 2.5 -2.203125 2.5 -3.734375 C 2.5 -4.484375 2.65625 -5.15625 2.890625 -5.625 C 3.125 -6.046875 3.578125 -6.28125 4.15625 -6.28125 C 4.96875 -6.28125 5.359375 -5.890625 5.59375 -4.875 Z M 7.515625 -4.875 "/>
</symbol>
<symbol overflow="visible" id="glyph2-9">
<path style="stroke:none;" d="M 5.671875 -7.78125 L 4.0625 -2.125 L 2.34375 -7.78125 L 0.125 -7.78125 L 3.03125 0.3125 C 3.03125 1.125 2.515625 1.671875 1.765625 1.671875 C 1.609375 1.671875 1.484375 1.640625 1.234375 1.578125 L 1.234375 3.09375 C 1.546875 3.140625 1.71875 3.15625 1.953125 3.15625 C 2.484375 3.15625 3.046875 3.046875 3.421875 2.90625 C 3.96875 2.671875 4.21875 2.359375 4.546875 1.421875 L 7.75 -7.78125 Z M 5.671875 -7.78125 "/>
</symbol>
<symbol overflow="visible" id="glyph2-10">
<path style="stroke:none;" d=""/>
</symbol>
<symbol overflow="visible" id="glyph2-11">
<path style="stroke:none;" d="M 4.515625 -7.625 L 3.3125 -7.625 L 3.3125 -8.390625 C 3.3125 -8.78125 3.484375 -8.984375 3.859375 -8.984375 C 4.046875 -8.984375 4.234375 -8.96875 4.4375 -8.953125 L 4.4375 -10.453125 C 4 -10.484375 3.59375 -10.5 3.28125 -10.5 C 1.9375 -10.5 1.296875 -9.875 1.296875 -8.5625 L 1.296875 -7.625 L 0.203125 -7.625 L 0.203125 -6.28125 L 1.296875 -6.28125 L 1.296875 0 L 3.3125 0 L 3.3125 -6.28125 L 4.515625 -6.28125 Z M 4.515625 -7.625 "/>
</symbol>
<symbol overflow="visible" id="glyph2-12">
<path style="stroke:none;" d="M 5.828125 0 L 7.84375 0 L 7.84375 -10.5 L 5.828125 -10.5 L 5.828125 -6.765625 C 5.328125 -7.546875 4.671875 -7.90625 3.6875 -7.90625 C 1.828125 -7.90625 0.421875 -6.125 0.421875 -3.78125 C 0.421875 -2.71875 0.734375 -1.65625 1.25 -0.90625 C 1.78125 -0.140625 2.734375 0.328125 3.6875 0.328125 C 4.671875 0.328125 5.328125 -0.015625 5.828125 -0.796875 Z M 4.140625 -6.21875 C 5.15625 -6.21875 5.828125 -5.25 5.828125 -3.75 C 5.828125 -2.328125 5.140625 -1.359375 4.140625 -1.359375 C 3.125 -1.359375 2.4375 -2.34375 2.4375 -3.78125 C 2.4375 -5.234375 3.125 -6.21875 4.140625 -6.21875 Z M 4.140625 -6.21875 "/>
</symbol>
<symbol overflow="visible" id="glyph2-13">
<path style="stroke:none;" d="M 5.765625 -7.78125 L 5.765625 -6.578125 C 5.203125 -7.484375 4.578125 -7.90625 3.765625 -7.90625 C 3.0625 -7.90625 2.3125 -7.5625 1.765625 -7 C 1 -6.1875 0.59375 -5.078125 0.59375 -3.703125 C 0.59375 -1.3125 1.859375 0.328125 3.71875 0.328125 C 4.546875 0.328125 5.0625 0.0625 5.765625 -0.796875 L 5.765625 0.265625 C 5.765625 1.203125 5.09375 1.84375 4.15625 1.84375 C 3.421875 1.84375 2.984375 1.53125 2.828125 0.9375 L 0.75 0.9375 C 0.765625 1.546875 0.984375 1.953125 1.515625 2.390625 C 2.125 2.890625 2.984375 3.140625 4.078125 3.140625 C 6.328125 3.140625 7.671875 2.0625 7.671875 0.265625 L 7.671875 -7.78125 Z M 4.140625 -6.21875 C 5.078125 -6.21875 5.796875 -5.171875 5.796875 -3.734375 C 5.796875 -2.3125 5.109375 -1.359375 4.109375 -1.359375 C 3.234375 -1.359375 2.609375 -2.3125 2.609375 -3.734375 C 2.609375 -5.203125 3.234375 -6.21875 4.140625 -6.21875 Z M 4.140625 -6.21875 "/>
</symbol>
<symbol overflow="visible" id="glyph2-14">
<path style="stroke:none;" d="M 2.859375 -7.78125 L 0.828125 -7.78125 L 0.828125 3.140625 L 2.859375 3.140625 L 2.859375 -0.921875 C 3.34375 -0.0625 4.03125 0.34375 5.015625 0.34375 C 6.890625 0.34375 8.265625 -1.40625 8.265625 -3.78125 C 8.265625 -4.875 7.953125 -5.96875 7.4375 -6.6875 C 6.921875 -7.421875 5.953125 -7.90625 5.015625 -7.90625 C 4.03125 -7.90625 3.34375 -7.484375 2.859375 -6.625 Z M 4.546875 -6.21875 C 5.578125 -6.21875 6.25 -5.25 6.25 -3.75 C 6.25 -2.3125 5.5625 -1.34375 4.546875 -1.34375 C 3.53125 -1.34375 2.859375 -2.3125 2.859375 -3.78125 C 2.859375 -5.25 3.53125 -6.21875 4.546875 -6.21875 Z M 4.546875 -6.21875 "/>
</symbol>
<symbol overflow="visible" id="glyph2-15">
<path style="stroke:none;" d="M 0.90625 -7.78125 L 0.90625 0 L 2.921875 0 L 2.921875 -4.140625 C 2.921875 -5.3125 3.515625 -5.90625 4.703125 -5.90625 C 4.90625 -5.90625 5.0625 -5.890625 5.328125 -5.84375 L 5.328125 -7.890625 C 5.21875 -7.90625 5.171875 -7.90625 5.078125 -7.90625 C 4.15625 -7.90625 3.375 -7.296875 2.921875 -6.25 L 2.921875 -7.78125 Z M 0.90625 -7.78125 "/>
</symbol>
<symbol overflow="visible" id="glyph2-16">
<path style="stroke:none;" d="M 0.84375 -10.5 L 0.84375 0 L 2.859375 0 L 2.859375 -0.796875 C 3.359375 -0.03125 4.03125 0.328125 5.015625 0.328125 C 6.875 0.328125 8.28125 -1.4375 8.28125 -3.78125 C 8.28125 -4.84375 7.96875 -5.90625 7.453125 -6.65625 C 6.921875 -7.421875 5.96875 -7.90625 5.015625 -7.90625 C 4.03125 -7.90625 3.359375 -7.546875 2.859375 -6.765625 L 2.859375 -10.5 Z M 4.5625 -6.21875 C 5.5625 -6.21875 6.265625 -5.21875 6.265625 -3.78125 C 6.265625 -2.34375 5.578125 -1.359375 4.5625 -1.359375 C 3.546875 -1.359375 2.859375 -2.3125 2.859375 -3.8125 C 2.859375 -5.25 3.5625 -6.21875 4.5625 -6.21875 Z M 4.5625 -6.21875 "/>
</symbol>
<symbol overflow="visible" id="glyph2-17">
<path style="stroke:none;" d="M 7.546875 -0.25 C 7.203125 -0.578125 7.09375 -0.8125 7.09375 -1.203125 L 7.09375 -5.515625 C 7.09375 -7.109375 6 -7.90625 3.90625 -7.90625 C 1.796875 -7.90625 0.703125 -7.015625 0.578125 -5.21875 L 2.515625 -5.21875 C 2.625 -6.015625 2.953125 -6.28125 3.953125 -6.28125 C 4.71875 -6.28125 5.109375 -6.015625 5.109375 -5.5 C 5.109375 -5.25 4.984375 -5.03125 4.765625 -4.890625 C 4.5 -4.75 4.5 -4.75 3.5 -4.59375 L 2.6875 -4.453125 C 1.15625 -4.1875 0.40625 -3.40625 0.40625 -2 C 0.40625 -0.609375 1.34375 0.328125 2.765625 0.328125 C 3.625 0.328125 4.40625 -0.03125 5.125 -0.78125 C 5.125 -0.375 5.171875 -0.234375 5.359375 0 L 7.546875 0 Z M 5.109375 -3.125 C 5.109375 -1.953125 4.53125 -1.296875 3.515625 -1.296875 C 2.84375 -1.296875 2.421875 -1.65625 2.421875 -2.234375 C 2.421875 -2.84375 2.734375 -3.125 3.578125 -3.296875 L 4.265625 -3.421875 C 4.796875 -3.53125 4.890625 -3.5625 5.109375 -3.671875 Z M 5.109375 -3.125 "/>
</symbol>
<symbol overflow="visible" id="glyph2-18">
<path style="stroke:none;" d="M 2.984375 -10.5 L 0.96875 -10.5 L 0.96875 0 L 2.984375 0 Z M 2.984375 -10.5 "/>
</symbol>
</g>
<clipPath id="clip1">
  <path d="M 59.039062 59.039062 L 473.757812 59.039062 L 473.757812 430.558594 L 59.039062 430.558594 Z M 59.039062 59.039062 "/>
</clipPath>
</defs>
<g id="surface111">
<rect x="0" y="0" width="504" height="504" style="fill:rgb(100%,100%,100%);fill-opacity:1;stroke:none;"/>
<path style="fill:none;stroke-width:0.75;stroke-linecap:round;stroke-linejoin:round;stroke:rgb(0%,0%,0%);stroke-opacity:1;stroke-miterlimit:10;" d="M 77.101562 416.800781 C 77.101562 420.398438 71.699219 420.398438 71.699219 416.800781 C 71.699219 413.199219 77.101562 413.199219 77.101562 416.800781 "/>
<path style="fill:none;stroke-width:0.75;stroke-linecap:round;stroke-linejoin:round;stroke:rgb(0%,0%,0%);stroke-opacity:1;stroke-miterlimit:10;" d="M 80.902344 370.417969 C 80.902344 374.019531 75.503906 374.019531 75.503906 370.417969 C 75.503906 366.816406 80.902344 366.816406 80.902344 370.417969 "/>
<path style="fill:none;stroke-width:0.75;stroke-linecap:round;stroke-linejoin:round;stroke:rgb(0%,0%,0%);stroke-opacity:1;stroke-miterlimit:10;" d="M 179.753906 362.6875 C 179.753906 366.289062 174.351562 366.289062 174.351562 362.6875 C 174.351562 359.085938 179.753906 359.085938 179.753906 362.6875 "/>
<path style="fill:none;stroke-width:0.75;stroke-linecap:round;stroke-linejoin:round;stroke:rgb(0%,0%,0%);stroke-opacity:1;stroke-miterlimit:10;" d="M 153.140625 312.441406 C 153.140625 316.039062 147.738281 316.039062 147.738281 312.441406 C 147.738281 308.839844 153.140625 308.839844 153.140625 312.441406 "/>
<path style="fill:none;stroke-width:0.75;stroke-linecap:round;stroke-linejoin:round;stroke:rgb(0%,0%,0%);stroke-opacity:1;stroke-miterlimit:10;" d="M 137.933594 316.304688 C 137.933594 319.90625 132.53125 319.90625 132.53125 316.304688 C 132.53125 312.707031 137.933594 312.707031 137.933594 316.304688 "/>
<path style="fill:none;stroke-width:0.75;stroke-linecap:round;stroke-linejoin:round;stroke:rgb(0%,0%,0%);stroke-opacity:1;stroke-miterlimit:10;" d="M 122.722656 362.6875 C 122.722656 366.289062 117.324219 366.289062 117.324219 362.6875 C 117.324219 359.085938 122.722656 359.085938 122.722656 362.6875 "/>
<path style="fill:none;stroke-width:0.75;stroke-linecap:round;stroke-linejoin:round;stroke:rgb(0%,0%,0%);stroke-opacity:1;stroke-miterlimit:10;" d="M 164.546875 374.28125 C 164.546875 377.882812 159.144531 377.882812 159.144531 374.28125 C 159.144531 370.683594 164.546875 370.683594 164.546875 374.28125 "/>
<path style="fill:none;stroke-width:0.75;stroke-linecap:round;stroke-linejoin:round;stroke:rgb(0%,0%,0%);stroke-opacity:1;stroke-miterlimit:10;" d="M 153.140625 289.25 C 153.140625 292.847656 147.738281 292.847656 147.738281 289.25 C 147.738281 285.648438 153.140625 285.648438 153.140625 289.25 "/>
<path style="fill:none;stroke-width:0.75;stroke-linecap:round;stroke-linejoin:round;stroke:rgb(0%,0%,0%);stroke-opacity:1;stroke-miterlimit:10;" d="M 160.742188 312.441406 C 160.742188 316.039062 155.34375 316.039062 155.34375 312.441406 C 155.34375 308.839844 160.742188 308.839844 160.742188 312.441406 "/>
<path style="fill:none;stroke-width:0.75;stroke-linecap:round;stroke-linejoin:round;stroke:rgb(0%,0%,0%);stroke-opacity:1;stroke-miterlimit:10;" d="M 153.140625 362.6875 C 153.140625 366.289062 147.738281 366.289062 147.738281 362.6875 C 147.738281 359.085938 153.140625 359.085938 153.140625 362.6875 "/>
<path style="fill:none;stroke-width:0.75;stroke-linecap:round;stroke-linejoin:round;stroke:rgb(0%,0%,0%);stroke-opacity:1;stroke-miterlimit:10;" d="M 202.566406 285.382812 C 202.566406 288.984375 197.164062 288.984375 197.164062 285.382812 C 197.164062 281.785156 202.566406 281.785156 202.566406 285.382812 "/>
<path style="fill:none;stroke-width:0.75;stroke-linecap:round;stroke-linejoin:round;stroke:rgb(0%,0%,0%);stroke-opacity:1;stroke-miterlimit:10;" d="M 179.753906 281.519531 C 179.753906 285.117188 174.351562 285.117188 174.351562 281.519531 C 174.351562 277.917969 179.753906 277.917969 179.753906 281.519531 "/>
<path style="fill:none;stroke-width:0.75;stroke-linecap:round;stroke-linejoin:round;stroke:rgb(0%,0%,0%);stroke-opacity:1;stroke-miterlimit:10;" d="M 160.742188 269.921875 C 160.742188 273.523438 155.34375 273.523438 155.34375 269.921875 C 155.34375 266.324219 160.742188 266.324219 160.742188 269.921875 "/>
<path style="fill:none;stroke-width:0.75;stroke-linecap:round;stroke-linejoin:round;stroke:rgb(0%,0%,0%);stroke-opacity:1;stroke-miterlimit:10;" d="M 153.140625 385.878906 C 153.140625 389.480469 147.738281 389.480469 147.738281 385.878906 C 147.738281 382.277344 153.140625 382.277344 153.140625 385.878906 "/>
<path style="fill:none;stroke-width:0.75;stroke-linecap:round;stroke-linejoin:round;stroke:rgb(0%,0%,0%);stroke-opacity:1;stroke-miterlimit:10;" d="M 259.59375 223.542969 C 259.59375 227.140625 254.195312 227.140625 254.195312 223.542969 C 254.195312 219.941406 259.59375 219.941406 259.59375 223.542969 "/>
<path style="fill:none;stroke-width:0.75;stroke-linecap:round;stroke-linejoin:round;stroke:rgb(0%,0%,0%);stroke-opacity:1;stroke-miterlimit:10;" d="M 145.535156 339.496094 C 145.535156 343.097656 140.136719 343.097656 140.136719 339.496094 C 140.136719 335.898438 145.535156 335.898438 145.535156 339.496094 "/>
<path style="fill:none;stroke-width:0.75;stroke-linecap:round;stroke-linejoin:round;stroke:rgb(0%,0%,0%);stroke-opacity:1;stroke-miterlimit:10;" d="M 461.101562 72.800781 C 461.101562 76.398438 455.699219 76.398438 455.699219 72.800781 C 455.699219 69.199219 461.101562 69.199219 461.101562 72.800781 "/>
<path style="fill:none;stroke-width:0.75;stroke-linecap:round;stroke-linejoin:round;stroke:rgb(0%,0%,0%);stroke-opacity:1;stroke-miterlimit:10;" d="M 217.773438 304.710938 C 217.773438 308.308594 212.375 308.308594 212.375 304.710938 C 212.375 301.109375 217.773438 301.109375 217.773438 304.710938 "/>
<path style="fill:none;stroke-width:0.75;stroke-linecap:round;stroke-linejoin:round;stroke:rgb(0%,0%,0%);stroke-opacity:1;stroke-miterlimit:10;" d="M 194.960938 378.148438 C 194.960938 381.75 189.5625 381.75 189.5625 378.148438 C 189.5625 374.546875 194.960938 374.546875 194.960938 378.148438 "/>
<path style="fill:none;stroke-width:0.75;stroke-linecap:round;stroke-linejoin:round;stroke:rgb(0%,0%,0%);stroke-opacity:1;stroke-miterlimit:10;" d="M 217.773438 254.464844 C 217.773438 258.0625 212.375 258.0625 212.375 254.464844 C 212.375 250.863281 217.773438 250.863281 217.773438 254.464844 "/>
<path style="fill:none;stroke-width:0.75;stroke-linecap:round;stroke-linejoin:round;stroke:rgb(0%,0%,0%);stroke-opacity:1;stroke-miterlimit:10;" d="M 156.941406 300.84375 C 156.941406 304.445312 151.542969 304.445312 151.542969 300.84375 C 151.542969 297.246094 156.941406 297.246094 156.941406 300.84375 "/>
<path style="fill:none;stroke-width:0.75;stroke-linecap:round;stroke-linejoin:round;stroke:rgb(0%,0%,0%);stroke-opacity:1;stroke-miterlimit:10;" d="M 331.832031 169.429688 C 331.832031 173.027344 326.433594 173.027344 326.433594 169.429688 C 326.433594 165.828125 331.832031 165.828125 331.832031 169.429688 "/>
<path style="fill:none;stroke-width:0.75;stroke-linecap:round;stroke-linejoin:round;stroke:rgb(0%,0%,0%);stroke-opacity:1;stroke-miterlimit:10;" d="M 175.953125 378.148438 C 175.953125 381.75 170.550781 381.75 170.550781 378.148438 C 170.550781 374.546875 175.953125 374.546875 175.953125 378.148438 "/>
<path style="fill:none;stroke-width:0.75;stroke-linecap:round;stroke-linejoin:round;stroke:rgb(0%,0%,0%);stroke-opacity:1;stroke-miterlimit:10;" d="M 423.082031 88.261719 C 423.082031 91.859375 417.679688 91.859375 417.679688 88.261719 C 417.679688 84.660156 423.082031 84.660156 423.082031 88.261719 "/>
<path style="fill:none;stroke-width:0.75;stroke-linecap:round;stroke-linejoin:round;stroke:rgb(0%,0%,0%);stroke-opacity:1;stroke-miterlimit:10;" d="M 229.179688 300.84375 C 229.179688 304.445312 223.777344 304.445312 223.777344 300.84375 C 223.777344 297.246094 229.179688 297.246094 229.179688 300.84375 "/>
<path style="fill:none;stroke-width:0.75;stroke-linecap:round;stroke-linejoin:round;stroke:rgb(0%,0%,0%);stroke-opacity:1;stroke-miterlimit:10;" d="M 377.457031 142.371094 C 377.457031 145.972656 372.054688 145.972656 372.054688 142.371094 C 372.054688 138.773438 377.457031 138.773438 377.457031 142.371094 "/>
<path style="fill:none;stroke-width:0.75;stroke-linecap:round;stroke-linejoin:round;stroke:rgb(0%,0%,0%);stroke-opacity:1;stroke-miterlimit:10;" d="M 343.238281 169.429688 C 343.238281 173.027344 337.839844 173.027344 337.839844 169.429688 C 337.839844 165.828125 343.238281 165.828125 343.238281 169.429688 "/>
<path style="fill:none;stroke-width:0.75;stroke-linecap:round;stroke-linejoin:round;stroke:rgb(0%,0%,0%);stroke-opacity:1;stroke-miterlimit:10;" d="M 191.160156 308.574219 C 191.160156 312.175781 185.757812 312.175781 185.757812 308.574219 C 185.757812 304.976562 191.160156 304.976562 191.160156 308.574219 "/>
<path style="fill:none;stroke-width:0.75;stroke-linecap:round;stroke-linejoin:round;stroke:rgb(0%,0%,0%);stroke-opacity:1;stroke-miterlimit:10;" d="M 244.386719 258.328125 C 244.386719 261.929688 238.988281 261.929688 238.988281 258.328125 C 238.988281 254.726562 244.386719 254.726562 244.386719 258.328125 "/>
<path style="fill:none;stroke-width:0.75;stroke-linecap:round;stroke-linejoin:round;stroke:rgb(0%,0%,0%);stroke-opacity:1;stroke-miterlimit:10;" d="M 297.613281 235.136719 C 297.613281 238.738281 292.214844 238.738281 292.214844 235.136719 C 292.214844 231.535156 297.613281 231.535156 297.613281 235.136719 "/>
<path style="fill:none;stroke-width:0.75;stroke-linecap:round;stroke-linejoin:round;stroke:rgb(0%,0%,0%);stroke-opacity:1;stroke-miterlimit:10;" d="M 251.992188 239.003906 C 251.992188 242.601562 246.589844 242.601562 246.589844 239.003906 C 246.589844 235.402344 251.992188 235.402344 251.992188 239.003906 "/>
<path style="fill:none;stroke-width:0.75;stroke-linecap:round;stroke-linejoin:round;stroke:rgb(0%,0%,0%);stroke-opacity:1;stroke-miterlimit:10;" d="M 369.851562 150.101562 C 369.851562 153.703125 364.453125 153.703125 364.453125 150.101562 C 364.453125 146.503906 369.851562 146.503906 369.851562 150.101562 "/>
<path style="fill:none;stroke-width:0.75;stroke-linecap:round;stroke-linejoin:round;stroke:rgb(0%,0%,0%);stroke-opacity:1;stroke-miterlimit:10;" d="M 103.714844 370.417969 C 103.714844 374.019531 98.3125 374.019531 98.3125 370.417969 C 98.3125 366.816406 103.714844 366.816406 103.714844 370.417969 "/>
<path style="fill:none;stroke-width:0.75;stroke-linecap:round;stroke-linejoin:round;stroke:rgb(0%,0%,0%);stroke-opacity:1;stroke-miterlimit:10;" d="M 172.148438 250.597656 C 172.148438 254.199219 166.75 254.199219 166.75 250.597656 C 166.75 246.996094 172.148438 246.996094 172.148438 250.597656 "/>
<path style="fill:none;stroke-width:0.75;stroke-linecap:round;stroke-linejoin:round;stroke:rgb(0%,0%,0%);stroke-opacity:1;stroke-miterlimit:10;" d="M 255.792969 184.890625 C 255.792969 188.488281 250.394531 188.488281 250.394531 184.890625 C 250.394531 181.289062 255.792969 181.289062 255.792969 184.890625 "/>
<path style="fill:none;stroke-width:0.75;stroke-linecap:round;stroke-linejoin:round;stroke:rgb(0%,0%,0%);stroke-opacity:1;stroke-miterlimit:10;" d="M 232.980469 239.003906 C 232.980469 242.601562 227.582031 242.601562 227.582031 239.003906 C 227.582031 235.402344 232.980469 235.402344 232.980469 239.003906 "/>
<path style="fill:none;stroke-width:0.75;stroke-linecap:round;stroke-linejoin:round;stroke:rgb(0%,0%,0%);stroke-opacity:1;stroke-miterlimit:10;" d="M 312.824219 250.597656 C 312.824219 254.199219 307.421875 254.199219 307.421875 250.597656 C 307.421875 246.996094 312.824219 246.996094 312.824219 250.597656 "/>
<path style="fill:none;stroke-width:0.75;stroke-linecap:round;stroke-linejoin:round;stroke:rgb(0%,0%,0%);stroke-opacity:1;stroke-miterlimit:10;" d="M 160.742188 366.554688 C 160.742188 370.152344 155.34375 370.152344 155.34375 366.554688 C 155.34375 362.953125 160.742188 362.953125 160.742188 366.554688 "/>
<path style="fill:none;stroke-width:0.75;stroke-linecap:round;stroke-linejoin:round;stroke:rgb(0%,0%,0%);stroke-opacity:1;stroke-miterlimit:10;" d="M 101.015625 430.558594 L 405.171875 430.558594 "/>
<path style="fill:none;stroke-width:0.75;stroke-linecap:round;stroke-linejoin:round;stroke:rgb(0%,0%,0%);stroke-opacity:1;stroke-miterlimit:10;" d="M 101.015625 430.558594 L 101.015625 437.761719 "/>
<path style="fill:none;stroke-width:0.75;stroke-linecap:round;stroke-linejoin:round;stroke:rgb(0%,0%,0%);stroke-opacity:1;stroke-miterlimit:10;" d="M 177.054688 430.558594 L 177.054688 437.761719 "/>
<path style="fill:none;stroke-width:0.75;stroke-linecap:round;stroke-linejoin:round;stroke:rgb(0%,0%,0%);stroke-opacity:1;stroke-miterlimit:10;" d="M 253.09375 430.558594 L 253.09375 437.761719 "/>
<path style="fill:none;stroke-width:0.75;stroke-linecap:round;stroke-linejoin:round;stroke:rgb(0%,0%,0%);stroke-opacity:1;stroke-miterlimit:10;" d="M 329.132812 430.558594 L 329.132812 437.761719 "/>
<path style="fill:none;stroke-width:0.75;stroke-linecap:round;stroke-linejoin:round;stroke:rgb(0%,0%,0%);stroke-opacity:1;stroke-miterlimit:10;" d="M 405.171875 430.558594 L 405.171875 437.761719 "/>
<g style="fill:rgb(0%,0%,0%);fill-opacity:1;">
  <use xlink:href="#glyph0-1" x="92.515625" y="456.228516"/>
  <use xlink:href="#glyph0-2" x="99.515625" y="456.228516"/>
  <use xlink:href="#glyph0-3" x="102.515625" y="456.228516"/>
</g>
<g style="fill:rgb(0%,0%,0%);fill-opacity:1;">
  <use xlink:href="#glyph0-1" x="168.554688" y="456.228516"/>
  <use xlink:href="#glyph0-2" x="175.554688" y="456.228516"/>
  <use xlink:href="#glyph0-4" x="178.554688" y="456.228516"/>
</g>
<g style="fill:rgb(0%,0%,0%);fill-opacity:1;">
  <use xlink:href="#glyph0-1" x="244.59375" y="456.228516"/>
  <use xlink:href="#glyph0-2" x="251.59375" y="456.228516"/>
  <use xlink:href="#glyph0-5" x="254.59375" y="456.228516"/>
</g>
<g style="fill:rgb(0%,0%,0%);fill-opacity:1;">
  <use xlink:href="#glyph0-1" x="320.632812" y="456.228516"/>
  <use xlink:href="#glyph0-2" x="327.632812" y="456.228516"/>
  <use xlink:href="#glyph0-6" x="330.632812" y="456.228516"/>
</g>
<g style="fill:rgb(0%,0%,0%);fill-opacity:1;">
  <use xlink:href="#glyph0-1" x="396.671875" y="456.228516"/>
  <use xlink:href="#glyph0-2" x="403.671875" y="456.228516"/>
  <use xlink:href="#glyph0-7" x="406.671875" y="456.228516"/>
</g>
<path style="fill:none;stroke-width:0.75;stroke-linecap:round;stroke-linejoin:round;stroke:rgb(0%,0%,0%);stroke-opacity:1;stroke-miterlimit:10;" d="M 59.039062 393.609375 L 59.039062 84.394531 "/>
<path style="fill:none;stroke-width:0.75;stroke-linecap:round;stroke-linejoin:round;stroke:rgb(0%,0%,0%);stroke-opacity:1;stroke-miterlimit:10;" d="M 59.039062 393.609375 L 51.839844 393.609375 "/>
<path style="fill:none;stroke-width:0.75;stroke-linecap:round;stroke-linejoin:round;stroke:rgb(0%,0%,0%);stroke-opacity:1;stroke-miterlimit:10;" d="M 59.039062 316.304688 L 51.839844 316.304688 "/>
<path style="fill:none;stroke-width:0.75;stroke-linecap:round;stroke-linejoin:round;stroke:rgb(0%,0%,0%);stroke-opacity:1;stroke-miterlimit:10;" d="M 59.039062 239.003906 L 51.839844 239.003906 "/>
<path style="fill:none;stroke-width:0.75;stroke-linecap:round;stroke-linejoin:round;stroke:rgb(0%,0%,0%);stroke-opacity:1;stroke-miterlimit:10;" d="M 59.039062 161.699219 L 51.839844 161.699219 "/>
<path style="fill:none;stroke-width:0.75;stroke-linecap:round;stroke-linejoin:round;stroke:rgb(0%,0%,0%);stroke-opacity:1;stroke-miterlimit:10;" d="M 59.039062 84.394531 L 51.839844 84.394531 "/>
<g style="fill:rgb(0%,0%,0%);fill-opacity:1;">
  <use xlink:href="#glyph1-1" x="41.509766" y="402.109375"/>
  <use xlink:href="#glyph1-2" x="41.509766" y="395.109375"/>
  <use xlink:href="#glyph1-3" x="41.509766" y="392.109375"/>
</g>
<g style="fill:rgb(0%,0%,0%);fill-opacity:1;">
  <use xlink:href="#glyph1-1" x="41.509766" y="324.804688"/>
  <use xlink:href="#glyph1-2" x="41.509766" y="317.804688"/>
  <use xlink:href="#glyph1-4" x="41.509766" y="314.804688"/>
</g>
<g style="fill:rgb(0%,0%,0%);fill-opacity:1;">
  <use xlink:href="#glyph1-1" x="41.509766" y="247.503906"/>
  <use xlink:href="#glyph1-2" x="41.509766" y="240.503906"/>
  <use xlink:href="#glyph1-5" x="41.509766" y="237.503906"/>
</g>
<g style="fill:rgb(0%,0%,0%);fill-opacity:1;">
  <use xlink:href="#glyph1-1" x="41.509766" y="170.199219"/>
  <use xlink:href="#glyph1-2" x="41.509766" y="163.199219"/>
  <use xlink:href="#glyph1-6" x="41.509766" y="160.199219"/>
</g>
<g style="fill:rgb(0%,0%,0%);fill-opacity:1;">
  <use xlink:href="#glyph1-1" x="41.509766" y="92.894531"/>
  <use xlink:href="#glyph1-2" x="41.509766" y="85.894531"/>
  <use xlink:href="#glyph1-7" x="41.509766" y="82.894531"/>
</g>
<path style="fill:none;stroke-width:0.75;stroke-linecap:round;stroke-linejoin:round;stroke:rgb(0%,0%,0%);stroke-opacity:1;stroke-miterlimit:10;" d="M 59.039062 430.558594 L 473.761719 430.558594 L 473.761719 59.039062 L 59.039062 59.039062 Z M 59.039062 430.558594 "/>
<g style="fill:rgb(0%,0%,0%);fill-opacity:1;">
  <use xlink:href="#glyph2-1" x="111.898438" y="34.516602"/>
  <use xlink:href="#glyph2-2" x="121.898438" y="34.516602"/>
  <use xlink:href="#glyph2-3" x="130.898438" y="34.516602"/>
  <use xlink:href="#glyph2-4" x="139.898438" y="34.516602"/>
  <use xlink:href="#glyph2-5" x="147.898438" y="34.516602"/>
  <use xlink:href="#glyph2-4" x="151.898438" y="34.516602"/>
  <use xlink:href="#glyph2-6" x="159.898438" y="34.516602"/>
  <use xlink:href="#glyph2-7" x="164.898438" y="34.516602"/>
  <use xlink:href="#glyph2-3" x="172.898438" y="34.516602"/>
  <use xlink:href="#glyph2-8" x="181.898438" y="34.516602"/>
  <use xlink:href="#glyph2-9" x="189.898438" y="34.516602"/>
  <use xlink:href="#glyph2-10" x="197.898438" y="34.516602"/>
  <use xlink:href="#glyph2-2" x="201.898438" y="34.516602"/>
  <use xlink:href="#glyph2-11" x="210.898438" y="34.516602"/>
  <use xlink:href="#glyph2-10" x="215.898438" y="34.516602"/>
  <use xlink:href="#glyph2-7" x="219.898438" y="34.516602"/>
  <use xlink:href="#glyph2-12" x="227.898438" y="34.516602"/>
  <use xlink:href="#glyph2-13" x="236.898438" y="34.516602"/>
  <use xlink:href="#glyph2-7" x="245.898438" y="34.516602"/>
  <use xlink:href="#glyph2-4" x="253.898438" y="34.516602"/>
  <use xlink:href="#glyph2-10" x="261.898438" y="34.516602"/>
  <use xlink:href="#glyph2-14" x="265.898438" y="34.516602"/>
  <use xlink:href="#glyph2-2" x="274.898438" y="34.516602"/>
  <use xlink:href="#glyph2-4" x="283.898438" y="34.516602"/>
  <use xlink:href="#glyph2-6" x="291.898438" y="34.516602"/>
  <use xlink:href="#glyph2-7" x="296.898438" y="34.516602"/>
  <use xlink:href="#glyph2-15" x="304.898438" y="34.516602"/>
  <use xlink:href="#glyph2-5" x="310.898438" y="34.516602"/>
  <use xlink:href="#glyph2-2" x="314.898438" y="34.516602"/>
  <use xlink:href="#glyph2-15" x="323.898438" y="34.516602"/>
  <use xlink:href="#glyph2-10" x="329.898438" y="34.516602"/>
  <use xlink:href="#glyph2-14" x="333.898438" y="34.516602"/>
  <use xlink:href="#glyph2-15" x="342.898438" y="34.516602"/>
  <use xlink:href="#glyph2-2" x="348.898438" y="34.516602"/>
  <use xlink:href="#glyph2-16" x="357.898438" y="34.516602"/>
  <use xlink:href="#glyph2-17" x="366.898438" y="34.516602"/>
  <use xlink:href="#glyph2-16" x="374.898438" y="34.516602"/>
  <use xlink:href="#glyph2-5" x="383.898438" y="34.516602"/>
  <use xlink:href="#glyph2-18" x="387.898438" y="34.516602"/>
  <use xlink:href="#glyph2-5" x="391.898438" y="34.516602"/>
  <use xlink:href="#glyph2-6" x="395.898438" y="34.516602"/>
  <use xlink:href="#glyph2-5" x="400.898438" y="34.516602"/>
  <use xlink:href="#glyph2-7" x="404.898438" y="34.516602"/>
  <use xlink:href="#glyph2-4" x="412.898438" y="34.516602"/>
</g>
<g style="fill:rgb(0%,0%,0%);fill-opacity:1;">
  <use xlink:href="#glyph0-8" x="231.898438" y="485.029297"/>
  <use xlink:href="#glyph0-9" x="241.898438" y="485.029297"/>
  <use xlink:href="#glyph0-8" x="250.898438" y="485.029297"/>
  <use xlink:href="#glyph0-9" x="260.898438" y="485.029297"/>
  <use xlink:href="#glyph0-10" x="269.898438" y="485.029297"/>
  <use xlink:href="#glyph0-11" x="272.898438" y="485.029297"/>
  <use xlink:href="#glyph0-12" x="276.898438" y="485.029297"/>
  <use xlink:href="#glyph0-13" x="283.898438" y="485.029297"/>
  <use xlink:href="#glyph0-10" x="290.898438" y="485.029297"/>
  <use xlink:href="#glyph0-14" x="293.898438" y="485.029297"/>
</g>
<g style="fill:rgb(0%,0%,0%);fill-opacity:1;">
  <use xlink:href="#glyph1-8" x="12.708984" y="279.300781"/>
  <use xlink:href="#glyph1-9" x="12.708984" y="269.300781"/>
  <use xlink:href="#glyph1-8" x="12.708984" y="260.300781"/>
  <use xlink:href="#glyph1-9" x="12.708984" y="250.300781"/>
  <use xlink:href="#glyph1-10" x="12.708984" y="241.300781"/>
  <use xlink:href="#glyph1-11" x="12.708984" y="238.300781"/>
  <use xlink:href="#glyph1-12" x="12.708984" y="234.300781"/>
  <use xlink:href="#glyph1-13" x="12.708984" y="227.300781"/>
  <use xlink:href="#glyph1-10" x="12.708984" y="220.300781"/>
  <use xlink:href="#glyph1-14" x="12.708984" y="217.300781"/>
</g>
<g clip-path="url(#clip1)" clip-rule="nonzero">
<path style="fill:none;stroke-width:0.75;stroke-linecap:round;stroke-linejoin:round;stroke:rgb(100%,64.705882%,0%);stroke-opacity:1;stroke-miterlimit:10;" d="M 59.039062 436.28125 L 473.761719 14.667969 "/>
</g>
</g>
</svg>
